<?xml version="1.0" encoding="UTF-8" standalone="no"?>
<!-- Created with Inkscape (http://www.inkscape.org/) -->

<svg
   xmlns:dc="http://purl.org/dc/elements/1.1/"
   xmlns:cc="http://creativecommons.org/ns#"
   xmlns:rdf="http://www.w3.org/1999/02/22-rdf-syntax-ns#"
   xmlns:svg="http://www.w3.org/2000/svg"
   xmlns="http://www.w3.org/2000/svg"
   xmlns:sodipodi="http://sodipodi.sourceforge.net/DTD/sodipodi-0.dtd"
   xmlns:inkscape="http://www.inkscape.org/namespaces/inkscape"
   width="125.23744mm"
   height="66.900177mm"
   viewBox="0 0 313.09359 167.25044"
   version="1.1"
   id="svg8"
   inkscape:version="0.92.2 (5c3e80d, 2017-08-06)"
   sodipodi:docname="aa.svg">
  <defs
     id="defs2" />
  <sodipodi:namedview
     id="base"
     pagecolor="#ffffff"
     bordercolor="#666666"
     borderopacity="1.0"
     inkscape:pageopacity="0.0"
     inkscape:pageshadow="2"
     inkscape:zoom="0.98994949"
     inkscape:cx="244.11612"
     inkscape:cy="4.2016351"
     inkscape:document-units="mm"
     inkscape:current-layer="g3764"
     showgrid="false"
     inkscape:pagecheckerboard="true"
     fit-margin-top="0"
     fit-margin-left="0"
     fit-margin-right="0"
     fit-margin-bottom="0"
     scale-x="2.5"
     inkscape:window-width="1533"
     inkscape:window-height="845"
     inkscape:window-x="67"
     inkscape:window-y="27"
     inkscape:window-maximized="1" />
  <metadata
     id="metadata5">
    <rdf:RDF>
      <cc:Work
         rdf:about="">
        <dc:format>image/svg+xml</dc:format>
        <dc:type
           rdf:resource="http://purl.org/dc/dcmitype/StillImage" />
        <dc:title></dc:title>
      </cc:Work>
    </rdf:RDF>
  </metadata>
  <g
     inkscape:label="Layer 1"
     inkscape:groupmode="layer"
     id="layer1"
     transform="translate(58.377691,-3.977907)">
    <g
       id="g3764"
       transform="translate(-15.40389,-38.53475)">
      <path
         style="fill:#f6c6b8;stroke-width:0.26458332"
         d="m 3.5775105,209.69695 c -0.6200617,-3.09164 -1.0310099,-18.09683 -0.6067796,-22.15564 0.1450023,-1.38731 0.2652263,-1.68545 0.7276042,-1.80436 1.1586104,-0.29795 6.7284229,-3.25274 8.7559829,-4.64506 2.460395,-1.68954 6.242222,-5.11448 8.366234,-7.57671 4.364559,-5.05956 7.237579,-10.69521 9.268788,-18.18144 0.842722,-3.10594 0.845878,-3.14159 0.850405,-9.59981 0.0036,-5.08802 -0.0887,-6.88065 -0.428966,-8.33437 -0.56836,-2.42822 -1.531406,-5.59576 -2.465472,-8.10915 l -0.752086,-2.02373 1.311798,-1.53675 c 5.669503,-6.64175 14.033029,-14.04577 21.582436,-19.10639 3.818229,-2.55949 7.421467,-4.61411 7.644746,-4.35916 0.101233,0.1156 0.390909,0.98408 0.643724,1.92997 1.564484,5.85336 4.962853,13.47722 8.487468,19.04069 6.850555,10.81333 16.759791,19.80486 28.173217,25.56406 18.11447,9.14054 39.7749,10.10937 58.7375,2.62723 4.16373,-1.6429 9.54054,-4.45156 13.05112,-6.81745 0.84796,-0.57146 1.59343,-0.98734 1.6566,-0.92417 0.0632,0.0632 -0.4651,0.99657 -1.17395,2.07422 -3.856,5.86229 -7.34638,13.60236 -8.92221,19.78539 -0.55431,2.17495 -0.37276,2.02916 -3.68552,2.95958 -6.75784,1.89801 -13.32176,5.76327 -18.45286,10.86622 l -2.31329,2.3006 -1.52119,-2.15954 c -5.7616,-8.17933 -12.31745,-13.78759 -21.08231,-18.03505 -6.16965,-2.98982 -11.98764,-4.61283 -18.610984,-5.1918 -3.520765,-0.30776 -9.519756,-0.16206 -12.499573,0.30359 -8.739809,1.36574 -17.185775,4.88886 -24.341666,10.15379 -1.08189,0.796 -2.066095,1.22892 -3.836459,1.68755 -11.52431,2.98546 -21.910177,11.43515 -27.227389,22.15155 -2.746106,5.53454 -4.139597,10.60209 -4.548677,16.54163 l -0.181872,2.64066 h -8.296551 c -4.5631042,0 -8.3025213,-0.0298 -8.3098185,-0.0662 z m 20.4595125,-2.77812 c 0.704778,-13.51998 8.56761,-26.45492 20.508941,-33.73872 1.574578,-0.96044 7.184787,-3.63368 7.62584,-3.63368 0.09316,0 -1.006565,1.22124 -2.44384,2.71387 -9.201978,9.55635 -14.454249,21.43121 -15.329525,34.65853 l -0.188211,2.84427 h -5.160735 -5.160738 z m 81.947447,1.19062 c -2e-5,-0.9095 -0.24124,-3.14193 -0.53604,-4.96094 -2.31337,-14.27448 -11.344774,-26.11864 -24.688138,-32.37705 -6.32931,-2.96862 -15.43775,-4.43313 -22.070036,-3.54854 -1.491589,0.19894 -2.711979,0.28919 -2.711979,0.20056 0,-0.50896 7.171952,-4.88814 10.211652,-6.23522 10.849856,-4.80824 23.717832,-5.92687 35.037521,-3.04588 12.58374,3.20272 24.45986,11.59109 31.25376,22.07524 l 1.22897,1.89652 -0.51037,0.66146 c -3.29071,4.26495 -6.12225,9.58259 -7.66236,14.38995 -0.77332,2.41384 -1.5491,6.82529 -1.73846,9.88557 l -0.16779,2.71198 h -8.82334 -8.82333 z m 21.52266,-0.92604 c 0.308,-4.64906 1.30616,-9.02282 3.06497,-13.4302 1.41969,-3.55756 4.27118,-8.45768 4.81603,-8.27606 0.3935,0.13116 2.55999,5.01505 3.46532,7.81181 l 0.81305,2.5117 -0.59035,3.06058 c -0.67678,3.50862 -1.06555,6.8616 -1.07234,9.24821 l -0.005,1.65365 h -5.33144 -5.33144 z m 89.14901,0.22147 c -0.23479,-0.37596 -0.25408,-1.269 -0.075,-3.47232 0.13259,-1.63141 0.30427,-3.0294 0.38153,-3.10664 0.29618,-0.29619 1.26794,2.46585 1.27426,3.62194 0.006,1.15118 -0.72305,3.46315 -1.09249,3.46315 -0.0947,0 -0.31446,-0.22775 -0.48831,-0.50613 z m -1.50884,-1.58607 c -0.64252,-0.70996 -2.85745,-1.61233 -4.40852,-1.79603 -1.05439,-0.12488 -1.33344,-0.26441 -1.42637,-0.7132 -0.0635,-0.30686 -0.29022,-1.37165 -0.50374,-2.36619 l -0.38819,-1.80826 0.87905,-0.36729 c 2.10952,-0.88142 4.36557,-0.69851 6.15455,0.499 0.7941,0.53156 0.85807,0.68287 0.85802,2.02959 -1.1e-4,2.08965 -0.30557,5.02708 -0.52274,5.02708 -0.10192,0 -0.39087,-0.22711 -0.64206,-0.5047 z m -9.50415,-1.2778 c -0.45122,-0.7301 1.41245,-4.69979 2.20644,-4.69979 0.36726,0 0.57499,0.6649 0.914,2.92559 l 0.16227,1.08209 -1.13369,0.27605 c -0.62352,0.15183 -1.33001,0.35955 -1.56993,0.4616 -0.23995,0.10205 -0.50054,0.0816 -0.57909,-0.0455 z m 9.61702,-5.96578 c -0.77915,-0.49456 -1.29961,-0.58609 -3.3328,-0.58609 -1.62142,0 -2.54873,0.11561 -2.83538,0.35351 -0.59386,0.49285 -0.86643,0.23813 -1.21145,-1.13208 -0.44267,-1.75794 -2.67816,-6.8905 -3.93888,-9.04339 -4.35427,-7.43563 -10.87104,-13.40837 -18.71443,-17.15209 -6.89534,-3.29122 -14.95993,-4.80398 -21.9434,-4.11617 -1.70943,0.16837 -3.15965,0.25452 -3.22271,0.19146 -0.17463,-0.17462 3.46836,-2.61577 5.85153,-3.92108 8.21246,-4.49812 16.23026,-6.55799 25.60887,-6.5792 4.45529,-0.0101 7.82575,0.33806 11.82967,1.22189 3.11076,0.68667 6.54019,1.76462 6.96474,2.18918 0.43918,0.43917 2.03562,5.65206 3.08152,10.06205 1.11929,4.71945 1.94876,9.13182 2.38977,12.71238 0.41434,3.36418 0.82037,13.71085 0.59407,15.13817 l -0.1978,1.24754 z m -75.67356,-4.28668 c 0,-0.60679 -1.92923,-5.5966 -3.00281,-7.76654 l -0.96087,-1.94213 1.55609,-1.90435 c 3.60193,-4.40801 8.68829,-8.48671 13.73251,-11.01194 2.5945,-1.29885 4.81466,-2.21176 4.81466,-1.97976 0,0.0627 -1.08446,1.21825 -2.40991,2.56796 -5.33426,5.43188 -9.50983,12.07014 -12.15336,19.3212 -1.02986,2.82486 -1.57631,3.76624 -1.57631,2.71556 z m -157.030208,-6.47572 c -6.324111,-0.74451 -13.219822,-3.47236 -19.00713,-7.51897 -2.525379,-1.76579 -6.764251,-5.55039 -6.512333,-5.8144 0.07982,-0.0836 0.881948,0.14553 1.782516,0.50928 5.121424,2.06864 12.504866,3.07571 18.570857,2.53299 10.688912,-0.95634 19.2582504,-4.95739 26.7957772,-12.51105 1.8553906,-1.85936 3.3734375,-3.3093 3.3734375,-3.22209 0,0.0872 -0.3502581,1.30285 -0.7783539,2.70143 -1.7349126,5.66793 -3.1133151,12.23626 -3.7262912,17.75641 -0.169672,1.52797 -0.3933269,2.94714 -0.4970171,3.15371 -0.2462927,0.49067 -1.4699006,0.90043 -5.2556595,1.75999 -2.6317681,0.59754 -3.848997,0.71742 -7.998928,0.78776 -2.692136,0.0456 -5.728229,-0.0151 -6.746875,-0.13506 z m 20.7715244,-3.65757 c 0.00273,-1.96818 0.9793869,-8.0129 2.0183766,-12.49216 2.9960252,-12.91639 7.879014,-24.29096 15.049741,-35.05729 2.729214,-4.09773 5.924227,-8.37207 6.367669,-8.51878 0.382468,-0.12654 1.805569,3.56277 2.602716,6.74741 1.008351,4.0284 1.304484,6.49327 1.293585,10.7672 -0.01765,6.92489 -1.295987,12.42461 -4.304892,18.52083 -4.751202,9.62623 -12.123796,16.65158 -21.7721578,20.74673 l -1.2567709,0.53343 0.00185,-1.24737 z M 158.47958,166.96674 c 0.0788,-0.25466 0.44754,-1.5189 0.81949,-2.80942 1.48333,-5.14653 5.00822,-12.85675 7.99822,-17.495 2.34267,-3.63408 5.79814,-7.98673 8.79862,-11.08309 3.14992,-3.25058 7.78536,-7.3078 8.34927,-7.3078 0.17688,0 0.83845,0.68461 1.47014,1.52136 1.71852,2.27635 7.13204,7.74047 10.10535,10.19981 1.44257,1.1932 3.95248,3.08129 5.57758,4.19575 2.2557,1.54691 3.07091,2.26675 3.4458,3.04271 2.50471,5.18427 5.14509,11.59687 4.88297,11.85901 -0.0765,0.0764 -0.84315,-0.10481 -1.70376,-0.40278 -0.86064,-0.29796 -2.7554,-0.82404 -4.21061,-1.16906 -14.92774,-3.53926 -31.02495,-0.40797 -43.3457,8.43176 -1.13437,0.81388 -2.12281,1.47977 -2.19654,1.47977 -0.0737,0 -0.0696,-0.20836 0.009,-0.46302 z m 28.11949,-15.69135 c 4.70126,-1.76334 5.47257,-7.98524 1.33288,-10.75186 -4.76904,-3.18723 -10.72299,1.28266 -9.16792,6.88277 0.35862,1.2915 1.92724,3.03501 3.2882,3.65484 1.17851,0.53674 3.4071,0.64175 4.54684,0.21425 z m -66.32704,4.36236 c -9.08667,-0.97824 -16.10921,-3.00507 -24.209378,-6.98727 -7.665921,-3.76872 -13.206675,-7.72567 -19.055228,-13.60837 -6.398978,-6.43635 -11.02945,-13.18902 -14.640124,-21.34987 -1.488723,-3.36482 -3.513391,-9.19453 -3.889436,-11.19901 l -0.17367,-0.92574 4.062564,-1.973961 c 20.707659,-10.061678 43.542472,-13.253225 66.371932,-9.276591 14.09301,2.454842 29.13122,8.625684 40.98699,16.818772 3.99231,2.75894 5.29817,3.88507 5.71916,4.93201 1.57345,3.91286 4.01875,8.48843 6.62562,12.39765 l 2.13753,3.20539 -2.10651,1.6894 c -2.86892,2.30085 -7.54146,6.98299 -10.10341,10.12417 -1.86015,2.28071 -2.52502,2.86659 -5.48616,4.83434 -13.37187,8.88599 -30.31496,13.03349 -46.23988,11.31908 z m 81.15853,-12.08841 c -3.72698,-2.56924 -6.39571,-4.80472 -9.86601,-8.26437 -3.39061,-3.38019 -6.46961,-6.93889 -6.46961,-7.47754 0,-0.15025 0.97265,-0.93862 2.16143,-1.75192 1.60964,-1.10124 2.24787,-1.407 2.50003,-1.19773 0.59938,0.49744 5.27688,6.38142 7.02551,8.83761 3.03532,4.26353 7.04982,10.85245 6.77788,11.12439 -0.0643,0.0643 -1.02243,-0.50744 -2.12923,-1.27044 z m 21.23522,-1.68143 c -7.16656,-0.6429 -12.24196,-1.69334 -18.65313,-3.8606 -4.47368,-1.5123 -4.96416,-1.80359 -6.25892,-3.71714 -1.35625,-2.00443 -4.32521,-5.8315 -6.2314,-8.03246 -0.77017,-0.88926 -1.4003,-1.73123 -1.4003,-1.87104 0,-0.3491 3.17542,-2.13165 7.14375,-4.01019 16.08526,-7.6145 35.64845,-8.75137 52.65208,-3.05974 2.40109,0.80372 6.15476,2.32667 8.34152,3.38435 3.66988,1.77504 9.24245,5.08914 11.08601,6.59303 l 0.77441,0.63172 -3.12581,2.06409 c -9.32066,6.15473 -19.3547,9.90728 -30.43759,11.38307 -3.08626,0.41097 -11.48905,0.71035 -13.89062,0.49491 z m -40.44246,-17.9188 c -2.18633,-3.33778 -5.71097,-10.00513 -6.03038,-11.40731 -0.16991,-0.7459 -0.0852,-0.70465 1.90181,0.92604 3.02575,2.48316 9.68728,9.02279 9.55148,9.37669 -0.20099,0.52375 -2.93995,4.35892 -3.11654,4.36386 -0.0926,0.003 -1.13047,-1.46409 -2.30637,-3.25928 z m 3.92996,2.07029 c 0,-0.37323 1.76318,-2.76619 2.04121,-2.7703 0.17678,-0.003 0.44338,0.22313 0.59244,0.50166 0.23204,0.43357 0.0811,0.64287 -1.04964,1.45521 -1.30155,0.93507 -1.58401,1.08012 -1.58401,0.81343 z m 0.13229,-5.4929 c -2.37602,-2.46623 -5.51844,-5.37599 -8.33438,-7.71729 -2.82482,-2.34869 -3.1092,-2.83808 -4.49259,-7.73133 -4.70252,-16.633522 -3.70421,-32.71405 3.02779,-48.770655 1.72397,-4.111869 7.39958,-13.760794 8.09426,-13.760794 0.11119,0 1.09384,1.339453 2.18367,2.976562 14.63155,21.979054 15.75902,50.81034 2.89192,73.951047 -0.82937,1.49158 -1.56988,2.70933 -1.64556,2.7061 -0.0757,-0.003 -0.85199,-0.74737 -1.72511,-1.65364 z"
         id="path3778"
         inkscape:connector-curvature="0" />
      <path
         style="fill:#f2ac97;stroke-width:0.26458332"
         d="M 3.3483813,206.78654 C 2.9015741,202.64044 2.6875685,194.18858 2.919878,189.86336 l 0.1948524,-3.62786 3.4791703,-1.70685 c 1.9135407,-0.93877 4.3126053,-2.26774 5.3312513,-2.95327 9.779357,-6.58136 16.239638,-16.36982 18.684253,-28.30993 0.484825,-2.368 0.59472,-3.77673 0.597844,-7.66381 0.005,-6.19274 -0.786397,-10.49709 -2.9065,-15.80865 -0.567987,-1.423 -0.842426,-2.45855 -0.712293,-2.68774 0.562647,-0.9909 6.78748,-7.50677 9.736331,-10.19153 5.73774,-5.22391 10.879261,-9.08944 17.138356,-12.88509 2.814719,-1.70691 3.258354,-1.90089 3.415286,-1.49332 0.0992,0.25763 0.558795,1.75533 1.021324,3.32824 1.194131,4.06083 2.115278,6.37183 4.34672,10.90518 2.07858,4.22279 5.539259,9.65085 8.514401,13.35478 2.318213,2.8861 7.525062,8.09294 10.411153,10.41116 5.506349,4.4229 12.676714,8.59824 19.050003,11.09289 21.21216,8.30295 46.05256,5.88101 64.76178,-6.31428 1.2311,-0.80248 2.28093,-1.4165 2.33293,-1.3645 0.052,0.052 -0.29989,0.6833 -0.78198,1.40287 -3.62704,5.41376 -6.94609,12.58885 -8.79949,19.02263 -0.50102,1.73922 -0.93655,3.1764 -0.96783,3.19374 -0.0313,0.0173 -1.42609,0.41491 -3.09958,0.88349 -3.75926,1.0526 -9.53774,3.82845 -12.82166,6.15923 -1.30384,0.92541 -3.60658,2.8689 -5.11718,4.31886 -2.20748,2.11886 -2.79163,2.55575 -2.97622,2.22591 -0.12632,-0.22571 -0.90238,-1.35251 -1.72459,-2.504 -5.0428,-7.06237 -11.80676,-12.88027 -19.56139,-16.82539 -7.80599,-3.97125 -15.477714,-5.77499 -24.549202,-5.77188 -11.939096,0.004 -22.421191,3.54003 -32.482452,10.95736 -0.518001,0.38188 -2.002723,0.97742 -3.307291,1.3266 -13.240004,3.54377 -23.789767,12.97679 -29.018521,25.94677 -1.638782,4.06502 -2.844925,9.86318 -2.848266,13.69219 l -0.0016,1.78594 H 11.964339 3.6691542 Z m 20.7277917,0.52916 c 0.778915,-10.54762 4.720775,-19.57141 11.809045,-27.03351 3.495328,-3.67968 7.332662,-6.47272 12.023267,-8.75125 4.530749,-2.20088 4.589918,-2.15634 1.448289,1.0904 -8.311178,8.58923 -13.207814,18.84542 -14.69618,30.7817 -0.207984,1.66796 -0.378151,3.78132 -0.378151,4.69635 v 1.66371 h -5.193501 -5.193503 z m 81.907287,0.39688 c -5.3e-4,-1.12779 -0.17988,-3.15308 -0.39843,-4.50065 -2.87642,-17.73559 -16.138745,-31.66007 -33.731753,-35.41591 -3.715309,-0.79316 -9.637059,-1.0954 -13.078569,-0.66752 -1.299617,0.16158 -2.414111,0.24261 -2.476653,0.18007 -0.172868,-0.17287 5.397926,-3.78595 7.374612,-4.783 8.304935,-4.18903 17.445024,-6.22489 26.304568,-5.85905 14.137825,0.58379 26.650535,6.16283 36.405895,16.2323 2.3664,2.4426 6.335,7.44454 6.91436,8.71472 0.21327,0.46756 -0.0204,0.9294 -1.44512,2.85614 -1.84102,2.48976 -4.48491,7.38099 -5.59411,10.34917 -1.39354,3.72907 -2.22334,7.77856 -2.69633,13.15831 l -0.15702,1.78594 h -8.71019 -8.71019 l -0.001,-2.05052 z m 21.77732,-1.19063 c 0.31396,-6.46451 2.63279,-13.59122 6.32377,-19.43547 0.57837,-0.91578 1.14301,-1.66505 1.25476,-1.66505 0.33051,0 2.24554,4.39887 3.31272,7.60941 l 0.99029,2.97921 -0.42513,1.78329 c -0.59074,2.47795 -1.15134,6.33408 -1.36512,9.39007 l -0.18047,2.57969 h -5.03412 -5.03411 z m 88.88218,0.66146 c -0.27657,-0.5805 0.25379,-6.28254 0.55605,-5.97808 0.9411,0.94798 1.256,3.91879 0.58547,5.52356 -0.42233,1.01081 -0.80407,1.1628 -1.14152,0.45452 z m -2.04698,-1.79266 c -0.94871,-0.77588 -2.80622,-1.44849 -4.00026,-1.44849 -0.47482,0 -0.92961,-0.10729 -1.01065,-0.23842 -0.081,-0.13114 -0.32674,-1.17293 -0.546,-2.31511 -0.46355,-2.41476 -0.42084,-2.48902 1.72765,-3.00444 1.06424,-0.25531 1.53977,-0.23527 2.74728,0.11575 0.80314,0.23348 1.75953,0.69029 2.12532,1.01514 0.65717,0.58363 0.6631,0.62588 0.49882,3.56719 -0.10597,1.89751 -0.27176,2.97311 -0.45731,2.96705 -0.1601,-0.005 -0.64828,-0.30164 -1.08485,-0.65867 z m -8.86206,-1.38234 c 0.003,-1.04321 0.58021,-2.41998 1.42206,-3.39387 l 0.8936,-1.03374 0.28512,1.45313 c 0.55107,2.80852 0.58999,2.67339 -0.88246,3.06358 -1.71477,0.45441 -1.72006,0.45413 -1.71832,-0.0891 z m 9.25894,-5.58261 c -0.98684,-0.58104 -1.50762,-0.69985 -3.04271,-0.69415 -1.2401,0.005 -2.13273,0.158 -2.70142,0.46424 l -0.84934,0.45738 -0.30104,-1.11798 c -0.88046,-3.26976 -3.30031,-8.3079 -5.75482,-11.98157 -2.30296,-3.44684 -7.48239,-8.69586 -10.89859,-11.04501 -7.33344,-5.04286 -15.53414,-7.65632 -24.20937,-7.71524 -2.03729,-0.0138 -4.53761,0.0698 -5.55625,0.1859 l -1.85208,0.21107 1.13356,-0.83596 c 2.83951,-2.09399 7.88471,-4.79712 11.58052,-6.20464 6.55792,-2.49753 11.86955,-3.44037 19.3005,-3.42594 6.58771,0.0128 11.17602,0.72378 16.65041,2.5801 l 1.83375,0.62181 0.62899,1.83375 c 1.86505,5.43746 3.71568,13.54389 4.58208,20.07125 0.47043,3.54435 1.07286,17.40189 0.75304,17.32249 -0.0586,-0.0146 -0.64239,-0.34193 -1.29723,-0.7275 z m -76.18965,-6.82997 c -0.62509,-1.72243 -1.53797,-3.93239 -2.02864,-4.91102 -0.49067,-0.97864 -0.89213,-1.89519 -0.89213,-2.03679 0,-0.4624 2.65988,-3.54446 4.99282,-5.78528 3.06533,-2.94429 6.38956,-5.27698 10.22072,-7.17211 4.70529,-2.32752 4.86212,-2.30912 2.35259,0.27603 -5.72322,5.89569 -9.93518,12.60509 -12.5143,19.93451 l -0.99455,2.82636 z m -156.415935,-3.91325 c -8.639421,-1.23919 -16.903946,-5.14518 -22.904383,-10.8251 -1.215453,-1.15052 -2.175467,-2.12631 -2.133366,-2.16841 0.0421,-0.0421 1.211713,0.31896 2.599136,0.80235 4.871441,1.69727 7.643645,2.12144 13.87649,2.12322 6.105665,0.002 8.732951,-0.3838 13.719228,-2.01324 6.5896724,-2.15341 13.8481351,-6.91711 18.1675269,-11.92329 0.8706696,-1.00911 1.5830364,-1.72988 1.5830364,-1.60171 0,0.12817 -0.3017229,1.23628 -0.6704938,2.46247 -1.6712301,5.55695 -2.7622103,10.6944 -3.5836543,16.87549 -0.3023605,2.27516 -0.5727567,4.15967 -0.6008819,4.18779 -0.1960404,0.19604 -5.2090241,1.501 -7.0476613,1.83461 -3.1548123,0.57244 -9.846069,0.69891 -13.004977,0.24582 z M 3.4326088,183.53295 C 5.4885721,164.4637 13.31364,145.15367 25.010557,130.28476 l 1.850477,-2.35229 0.51435,1.19993 c 1.043694,2.43484 2.185668,6.45818 2.715776,9.56809 0.714031,4.18888 0.580247,11.30073 -0.287903,15.30466 -2.427926,11.19764 -8.764818,20.59024 -18.176248,26.94101 -1.9538637,1.31845 -6.519638,3.72727 -7.7430449,4.08508 l -0.6328516,0.1851 z M 158.63661,167.01856 c 0,-0.58893 1.58266,-5.55784 2.56577,-8.05546 3.69683,-9.39196 8.89505,-17.32983 15.94049,-24.34167 3.01835,-3.00396 6.90984,-6.36436 7.33596,-6.33479 0.12058,0.008 0.81455,0.80052 1.54215,1.76034 3.31383,4.37141 10.8717,11.20189 16.33284,14.76091 l 2.02994,1.32292 1.58824,3.30729 c 1.87915,3.91305 4.06381,9.27858 3.86064,9.48174 -0.0789,0.0789 -0.70631,-0.0496 -1.39422,-0.28549 -2.00295,-0.68693 -3.94986,-1.18359 -7.20389,-1.83772 -2.68483,-0.53971 -3.80516,-0.61166 -9.525,-0.61166 -5.75625,0 -6.83791,0.0704 -9.6573,0.62848 -8.03345,1.59019 -15.14171,4.58223 -21.18229,8.91615 -1.99129,1.42869 -2.23333,1.56838 -2.23333,1.28896 z m 27.66708,-15.58849 c 1.65942,-0.49507 3.08869,-1.67535 3.79458,-3.13352 0.70809,-1.46271 0.73223,-3.86206 0.0539,-5.35551 -0.60009,-1.32118 -2.32744,-2.83977 -3.69684,-3.25004 -2.15652,-0.64612 -4.19107,-0.21755 -5.89623,1.242 -1.42083,1.21618 -2.06555,2.66283 -2.07291,4.65125 -0.01,2.70307 1.35927,4.72867 3.85542,5.70342 1.58637,0.61948 2.27951,0.64439 3.9621,0.1424 z m -61.93062,4.44821 c -8.42781,-0.36276 -17.58041,-2.48102 -25.202914,-5.8329 -8.924181,-3.92428 -15.994763,-8.82608 -22.702975,-15.7392 -7.707172,-7.9426 -13.181986,-16.96233 -16.54783,-27.26245 -1.82278,-5.57806 -1.88868,-5.12127 0.953717,-6.61074 5.871732,-3.076875 15.299595,-6.630113 22.229342,-8.377937 3.600606,-0.908148 9.126366,-1.944963 13.6217,-2.555878 4.1367,-0.562179 16.51921,-0.800645 21.39272,-0.411991 18.48592,1.474224 35.30248,7.301048 50.70624,17.569366 5.89121,3.92715 5.89141,3.92735 7.50265,7.56802 1.61801,3.65595 4.36983,8.5727 6.35541,11.35539 0.74551,1.0448 1.35548,1.93989 1.35548,1.9891 0,0.0492 -1.23487,1.12357 -2.74415,2.38748 -3.19141,2.67256 -7.26018,6.80724 -9.66765,9.82427 -4.47729,5.6109 -17.96598,12.26384 -29.74914,14.67296 -5.03061,1.02854 -12.52711,1.63866 -17.5026,1.42451 z m 76.30038,-12.95474 c -3.40511,-2.40404 -6.49227,-5.03454 -9.58808,-8.16982 -2.36031,-2.39041 -5.99043,-6.63611 -5.99043,-7.00628 0,-0.18427 4.02856,-2.91578 4.30017,-2.91567 0.56999,2.3e-4 5.5501,6.2907 8.90247,11.24487 2.60714,3.85288 5.40866,8.59896 5.07576,8.59896 -0.12004,0 -1.33498,-0.78843 -2.69989,-1.75206 z m 20.00795,-1.32327 c -8.832,-1.26106 -12.36773,-2.084 -18.10567,-4.21408 l -3.44577,-1.27917 -1.71031,-2.4295 c -1.43467,-2.03794 -3.76498,-5.02858 -6.69856,-8.59673 -0.72077,-0.87668 -0.80587,-0.79411 2.84052,-2.75623 7.88755,-4.24427 15.49583,-6.69036 24.87083,-7.99606 4.95684,-0.69036 13.99109,-0.62747 19.05,0.13261 10.94844,1.64494 20.33866,5.23721 29.4349,11.26044 1.56435,1.03586 2.84427,1.96367 2.84427,2.0618 0,0.28603 -2.29645,1.89284 -5.36175,3.75158 -7.78735,4.72212 -16.48275,7.90894 -25.84596,9.47242 -2.64655,0.44193 -4.71649,0.56985 -10.19958,0.63035 -3.78354,0.0418 -7.23636,0.0249 -7.67292,-0.0374 z m -37.8907,-16.96686 c -2.72646,-4.02469 -6.99393,-12.02284 -6.61634,-12.40043 0.35896,-0.35895 11.30183,9.69283 11.30183,10.3815 0,0.47622 -2.57206,4.33403 -2.88956,4.33403 -0.12518,0 -0.93335,-1.04179 -1.79593,-2.3151 z m 3.62716,1.11654 c 0,-0.0936 0.37745,-0.69573 0.83878,-1.33812 0.80208,-1.11687 0.86061,-1.14824 1.33738,-0.71676 0.48682,0.44056 0.4846,0.46178 -0.0937,0.89799 -0.93686,0.70668 -2.08246,1.34311 -2.08246,1.15689 z m -1.85787,-7.07948 c -1.8222,-1.77723 -4.64938,-4.34529 -6.28263,-5.70679 l -2.96954,-2.47547 -1.17893,-3.66123 c -1.34679,-4.18256 -2.29666,-8.445526 -2.94478,-13.215966 -0.60579,-4.458893 -0.61066,-12.959485 -0.0101,-17.594791 1.47835,-11.41004 5.63808,-22.308686 12.0884,-31.672046 l 1.26171,-1.83152 1.02997,1.405948 c 2.55458,3.48711 5.70315,9.20314 7.58074,13.762363 2.98732,7.253915 4.57073,14.222719 5.23311,23.031609 0.7466,9.928995 -1.19686,21.519413 -5.26833,31.419273 -1.5098,3.67109 -4.6985,9.80609 -5.08309,9.77976 -0.0789,-0.005 -1.63435,-1.46392 -3.45654,-3.24114 z"
         id="path3776"
         inkscape:connector-curvature="0" />
      <path
         style="fill:#ee825d;stroke-width:0.26458332"
         d="m 3.7480238,209.03549 c -0.4650554,-2.26519 -0.7767161,-7.61331 -0.7824867,-13.4276 -0.00667,-6.72665 0.1926511,-9.65729 0.6568467,-9.65729 0.6738911,0 5.9939687,-2.76122 8.3434422,-4.3304 9.69545,-6.47545 16.134368,-16.12147 18.656385,-27.94877 0.497718,-2.3341 0.594262,-3.62388 0.604062,-8.06979 0.01011,-4.58228 -0.07173,-5.68183 -0.610412,-8.20208 -0.708345,-3.31405 -1.666095,-6.49084 -2.579659,-8.55657 l -0.626091,-1.4157 1.947926,-2.28991 c 3.369178,-3.96068 9.912702,-10.15111 14.613226,-13.82469 3.657478,-2.85841 12.920519,-8.97043 13.595096,-8.97043 0.08233,0 0.491786,1.16086 0.909912,2.57969 3.58289,12.15784 9.959872,22.72344 18.966834,31.42489 10.903995,10.53414 23.289375,16.76627 38.463295,19.35411 3.9058,0.66611 4.79628,0.72197 11.50938,0.72197 6.67166,0 7.61669,-0.0584 11.37708,-0.70331 5.93331,-1.01754 10.60939,-2.31996 15.875,-4.42166 3.0323,-1.21029 9.02981,-4.34717 11.64167,-6.08893 0.80036,-0.53374 1.59851,-1.05432 1.77366,-1.15684 0.17515,-0.10251 -0.41687,0.97808 -1.31561,2.40132 -3.3226,5.26168 -6.46681,12.15636 -7.99731,17.53668 -1.08643,3.81922 -0.88143,3.55199 -3.13124,4.08181 -6.46476,1.52243 -14.03703,5.88254 -19.30684,11.11689 l -2.26323,2.24799 -1.84109,-2.57871 c -8.47848,-11.8753 -20.74983,-19.66157 -34.974593,-22.19163 -3.276698,-0.58281 -4.608542,-0.68237 -9.128125,-0.68237 -4.514205,0 -5.855327,0.10003 -9.128125,0.68082 -8.571265,1.52104 -16.304448,4.83365 -22.955266,9.83315 -1.155399,0.86853 -2.052722,1.297 -3.342852,1.5962 -4.569841,1.05982 -9.764485,3.4423 -14.183132,6.50499 -3.13916,2.17584 -7.639751,6.50983 -9.864347,9.49919 -3.666106,4.92644 -6.531364,11.30711 -7.722767,17.19792 -0.309295,1.52929 -0.916024,6.91503 -0.931457,8.26823 -0.0013,0.10914 -3.62421,0.19844 -8.051031,0.19844 H 3.8974049 Z m 20.4802532,-1.10533 c 0,-3.6696 1.322435,-10.14413 2.829517,-13.85308 3.873985,-9.53394 11.041052,-17.47 19.821613,-21.94838 5.26084,-2.68321 5.26356,-2.68291 2.467533,0.26644 -8.485383,8.95072 -13.695355,20.03748 -14.802705,31.50002 -0.164171,1.6994 -0.358335,3.71489 -0.431474,4.47888 l -0.132977,1.38906 h -4.875755 -4.875752 z m 82.007383,0.97304 c -0.0384,-2.45379 -0.73671,-7.13015 -1.48435,-9.93971 -0.9143,-3.43587 -1.73266,-5.51662 -3.56902,-9.07459 -6.36594,-12.33408 -18.757144,-20.98434 -32.533903,-22.71179 -2.4661,-0.30923 -8.556263,-0.33262 -10.884173,-0.0418 -0.836745,0.10453 -1.521354,0.16695 -1.521354,0.1387 0,-0.29641 6.584379,-4.21455 9.124037,-5.42941 8.138274,-3.89298 17.919131,-5.76672 26.369693,-5.05172 14.90952,1.26151 27.67139,7.71727 36.97971,18.70669 1.74136,2.05585 4.78489,6.24682 4.78489,6.58883 0,0.0932 -0.57704,0.91098 -1.28232,1.81737 -3.24301,4.16773 -5.73593,9.30989 -7.30208,15.06208 -0.73252,2.69038 -1.45581,7.40101 -1.4646,9.53849 l -0.005,1.25677 h -8.59896 -8.59896 l -0.0134,-0.8599 z m 21.53713,-2.11666 c 0.39513,-6.78355 2.72029,-13.90346 6.45845,-19.77653 l 1.09395,-1.71871 1.17447,2.51246 c 0.64596,1.38185 1.60498,3.80418 2.13116,5.38295 0.94762,2.84328 0.95303,2.88466 0.57024,4.36563 -0.61082,2.36318 -1.18404,6.27478 -1.37261,9.36649 l -0.17348,2.84427 h -5.02778 -5.02778 z m 88.93229,0.26247 c -0.0825,-0.32858 -0.0519,-1.84663 0.068,-3.37344 l 0.21799,-2.77601 0.50887,0.92604 c 0.33594,0.61134 0.5134,1.46552 0.52224,2.51354 0.0196,2.32664 -0.92536,4.27078 -1.31713,2.70987 z m -1.58035,-1.43873 c -0.9425,-0.7226 -3.14397,-1.6253 -4.40883,-1.80782 l -1.23426,-0.17811 -0.29858,-1.75927 c -0.16423,-0.9676 -0.35383,-1.94516 -0.42138,-2.17235 -0.18462,-0.62117 1.49437,-1.30672 3.20033,-1.30672 1.41986,0 3.49736,0.72566 4.04209,1.41187 0.21571,0.27173 -0.0268,5.89397 -0.26445,6.13164 -0.0474,0.0474 -0.32409,-0.0963 -0.61492,-0.31924 z m -9.2823,-2.08836 c 0.19667,-1.10066 1.40959,-3.30763 1.90844,-3.47244 0.3271,-0.10807 1.05111,3.15671 0.79272,3.57476 -0.0838,0.13568 -0.54232,0.31215 -1.01878,0.39214 -0.47649,0.08 -1.09154,0.23431 -1.36681,0.34293 -0.45585,0.17988 -0.48398,0.10526 -0.31557,-0.83739 z m 9.02708,-5.21956 c -1.4237,-0.73771 -3.4966,-0.87869 -5.06452,-0.34444 -0.69101,0.23545 -1.28495,0.42809 -1.31982,0.42809 -0.0349,0 -0.38661,-0.98226 -0.78158,-2.18281 -4.48249,-13.62461 -15.9505,-24.41114 -29.89934,-28.12257 -4.82603,-1.28409 -11.53838,-1.79093 -15.71815,-1.18686 -0.94044,0.13592 -1.7578,0.19921 -1.81636,0.14065 -0.0586,-0.0586 0.94902,-0.78898 2.23906,-1.62318 6.5656,-4.24558 12.81842,-6.68191 20.73406,-8.07877 4.99895,-0.88215 12.22966,-0.83403 17.4625,0.11623 3.19341,0.57991 7.4376,1.69023 9.28616,2.42936 0.2762,0.11044 0.84659,1.60832 1.64629,4.32336 2.65115,9.00082 3.70446,14.70396 4.40534,23.85259 0.31697,4.13745 0.36314,10.87692 0.0742,10.82664 -0.10914,-0.019 -0.67067,-0.27922 -1.24783,-0.57829 z m -75.12605,-4.29535 c -0.11267,-0.28368 -0.56279,-1.52782 -1.00027,-2.76475 -0.43748,-1.23692 -1.27763,-3.22729 -1.867,-4.42302 l -1.07159,-2.17407 1.09954,-1.42521 c 1.69988,-2.20336 6.26216,-6.48068 8.90018,-8.34428 2.02378,-1.42967 8.85009,-5.06467 9.51115,-5.06467 0.11727,0 -0.96426,1.2225 -2.4034,2.71667 -4.15386,4.31269 -6.80158,8.04452 -9.42965,13.29063 -1.1893,2.37407 -2.81667,6.3359 -3.41795,8.32099 -0.0878,0.28989 -0.16616,0.2576 -0.32101,-0.13229 z m -154.9381,-6.10022 c -9.522574,-1.168 -16.542613,-3.99524 -23.283333,-9.3771 -1.236927,-0.98757 -2.714977,-2.27698 -3.284556,-2.86535 l -1.035597,-1.06976 2.093931,0.78305 c 4.722486,1.76601 11.805014,2.80567 16.910597,2.48235 10.844628,-0.68676 20.3719585,-4.96209 27.9231775,-12.53036 l 3.0523418,-3.05923 -0.8746702,3.04271 C 4.62752,171.15636 3.3919264,177.33723 2.6069818,183.82314 l -0.2068301,1.70901 -1.98437503,0.60904 c -4.29765617,1.31903 -12.07735567,2.19895 -15.61041667,1.7656 z m 18.5219128,-2.94838 c 0.00497,-0.91622 1.4818863,-10.09429 2.0117091,-12.50156 3.3365255,-15.15967 10.3200091,-30.08797 19.6580491,-42.02217 2.041229,-2.60873 1.935353,-2.65699 3.319045,1.51272 1.764877,5.31838 2.097476,7.45658 2.103371,13.52195 0.0058,5.96844 -0.313153,8.09412 -1.984994,13.22916 -3.664656,11.25593 -12.049667,20.61456 -22.900317,25.55936 -2.1359972,0.9734 -2.2084718,0.99641 -2.2068632,0.70054 z M 158.79229,166.48032 c 1.21534,-5.00082 4.41378,-12.60968 7.47548,-17.78366 4.41273,-7.45708 11.19533,-15.20346 17.26454,-19.71777 l 0.95091,-0.7073 2.17537,2.63261 c 4.00794,4.85036 9.63008,9.89203 15.19014,13.62183 l 2.4285,1.62908 1.30064,2.63368 c 1.37335,2.78088 4.40508,9.98074 4.26268,10.12313 -0.0461,0.0461 -1.25717,-0.27554 -2.69126,-0.71478 -7.77241,-2.38052 -15.73418,-2.90859 -23.90643,-1.58561 -8.98809,1.45506 -15.96318,4.4164 -24.02671,10.20078 -0.60516,0.43411 -0.60926,0.43089 -0.42386,-0.33199 z m 27.66302,-14.96804 c 1.31018,-0.39253 3.0105,-1.84623 3.66883,-3.13666 2.1017,-4.11966 -0.912,-9.0042 -5.54417,-8.98588 -5.80625,0.023 -8.44256,7.16293 -4.01675,10.87862 1.74892,1.46831 3.7401,1.88868 5.89209,1.24392 z m -66.44787,3.99607 C 103.14812,153.45001 88.856904,146.60793 77.248253,135.0369 69.031048,126.84633 63.28904,117.39587 59.690418,106.13942 c -0.58647,-1.83447 -1.066308,-3.59183 -1.066308,-3.90525 0,-0.46285 0.583761,-0.86185 3.108854,-2.12493 6.458199,-3.230466 14.89411,-6.373853 21.64932,-8.066967 3.291792,-0.82505 11.778993,-2.310799 15.458493,-2.706129 4.309493,-0.463016 17.317123,-0.464614 21.674763,-0.0027 16.02693,1.699008 30.94814,6.707343 44.47107,14.926806 2.94418,1.78952 7.52559,4.91789 9.10403,6.21659 0.50054,0.41182 1.21583,1.65876 2.04561,3.56598 1.50322,3.4551 3.65801,7.34734 5.89522,10.64866 0.88455,1.30527 1.69484,2.51023 1.80066,2.67769 0.11859,0.18767 -0.43971,0.7965 -1.45521,1.58692 -2.53286,1.97147 -7.66029,7.06521 -10.34388,10.2759 -2.10596,2.51959 -2.81137,3.15205 -5.49351,4.92529 -8.21878,5.4337 -17.34397,8.98437 -27.61438,10.74497 -3.36581,0.57698 -4.95354,0.6931 -10.45104,0.76434 -3.56526,0.0462 -7.37526,-0.025 -8.46667,-0.15827 z m 81.6129,-11.98839 c -3.19393,-2.18444 -5.97187,-4.45972 -9.00598,-7.37637 -3.28664,-3.15941 -7.57689,-8.09428 -7.35254,-8.45729 0.0738,-0.11941 1.04237,-0.82995 2.15237,-1.57897 l 2.01819,-1.36186 1.28066,1.43225 c 1.86092,2.08122 5.6546,7.09223 7.7946,10.29579 2.05537,3.07688 4.94716,7.92717 4.80347,8.05668 -0.0507,0.0457 -0.81156,-0.4089 -1.69077,-1.01023 z m 19.72252,-1.93171 c -4.62386,-0.36648 -11.50646,-1.79739 -16.19872,-3.36775 -4.88214,-1.63392 -5.86895,-2.09898 -6.60641,-3.1135 -2.97111,-4.08737 -4.82258,-6.51217 -6.47768,-8.48361 l -1.9389,-2.3095 1.3895,-0.81204 c 11.95254,-6.98519 27.21059,-10.57116 40.54783,-9.52961 13.2193,1.03234 24.44086,4.85649 35.10394,11.96295 1.26259,0.84145 2.36363,1.63998 2.44676,1.7745 0.2335,0.37778 -5.39355,4.02711 -9.37257,6.07843 -8.05688,4.15361 -17.00887,6.81731 -25.79688,7.67597 -2.34299,0.22893 -10.7674,0.3088 -13.09687,0.12416 z m -38.80874,-17.48401 c -2.72406,-4.15054 -4.30557,-7.03542 -5.8953,-10.7538 -0.63582,-1.48717 -0.73819,-1.53025 2.10612,0.88613 2.02985,1.72445 7.26925,6.70307 8.1713,7.76458 l 0.63067,0.74216 -1.41955,2.10261 c -0.78074,1.15642 -1.4886,2.10259 -1.57302,2.10259 -0.0844,0 -0.99351,-1.27992 -2.02022,-2.84427 z m 4.28238,1.06045 c 0.24844,-0.42057 0.65275,-1.03121 0.89848,-1.35697 0.42879,-0.56847 0.46413,-0.57309 0.87835,-0.11482 0.40622,0.44943 0.35343,0.52916 -0.89848,1.35697 l -1.33005,0.87949 z m -1.32468,-5.63637 c -2.35663,-2.38724 -6.91947,-6.49601 -9.0292,-8.13065 -0.99257,-0.76906 -1.17865,-1.11647 -2.04937,-3.82615 -2.57496,-8.013241 -3.60581,-14.533027 -3.60581,-22.805476 0,-7.737253 0.83471,-13.382377 3.09341,-20.920655 1.18775,-3.964067 3.62688,-9.759722 5.56755,-13.229166 1.67289,-2.990713 4.81204,-7.805209 5.08916,-7.805209 0.53915,0 4.78754,6.922506 6.73863,10.980209 4.83288,10.05093 7.02792,19.760864 7.02792,31.088541 0,10.055111 -1.84053,19.309266 -5.55162,27.913546 -1.07348,2.48889 -3.76867,7.73932 -4.33434,8.44362 l -0.56508,0.70357 z"
         id="path3774"
         inkscape:connector-curvature="0" />
      <path
         style="fill:#ec744a;stroke-width:0.26458332"
         d="m 106.24694,208.50633 c -0.01,-5.52429 -1.99479,-12.97311 -4.94694,-18.56141 -6.519757,-12.34159 -18.101533,-20.63231 -31.827973,-22.78381 -1.213467,-0.1902 -4.065895,-0.27552 -7.342368,-0.21963 -2.946895,0.0503 -5.35791,0.0761 -5.357812,0.0573 9.8e-5,-0.0188 1.005075,-0.70278 2.233282,-1.52005 3.957682,-2.63349 9.034684,-5.0093 13.596268,-6.36245 8.705469,-2.58237 16.588385,-3.04816 24.916463,-1.47225 14.53679,2.75077 26.35077,10.41336 34.62829,22.46002 l 1.34584,1.95866 -0.92099,1.21634 c -5.30227,7.00263 -8.58924,15.63659 -9.05008,23.77207 l -0.15362,2.71198 h -8.5591 -8.55909 l -0.002,-1.25677 z m 21.43827,-0.26459 c 0.0208,-6.51666 2.74494,-15.28532 6.60335,-21.25503 l 1.06255,-1.64397 1.03978,2.25061 c 0.57188,1.23783 1.5077,3.62142 2.0796,5.29687 l 1.0398,3.04627 -0.59566,2.65 c -0.65873,2.93062 -1.1801,7.17168 -1.1801,9.59948 v 1.57713 h -5.02709 -5.02708 l 0.005,-1.52136 z M 3.6116655,207.75667 c 0.0127,-0.30822 0.07539,-0.37091 0.1598507,-0.15985 0.07643,0.191 0.067032,0.4192 -0.020876,0.50712 -0.087918,0.0879 -0.1504527,-0.0683 -0.1389645,-0.34727 z m 20.6375005,-0.26458 c 0.0127,-0.30822 0.07539,-0.37092 0.15985,-0.15985 0.07643,0.19099 0.06703,0.4192 -0.02088,0.50712 -0.08792,0.0879 -0.150453,-0.0684 -0.138965,-0.34727 z m 192.613584,-0.22107 c -0.23828,-0.28711 -0.29326,-0.84148 -0.17912,-1.8054 0.0906,-0.76509 0.18288,-2.01614 0.205,-2.78013 0.046,-1.5884 0.27125,-1.75127 0.76694,-0.55458 0.45448,1.09721 0.41551,3.90461 -0.067,4.82548 -0.33785,0.64481 -0.42164,0.68113 -0.72583,0.31463 z M 3.3777739,205.66206 c 0.0054,-0.43657 0.064691,-0.58313 0.131773,-0.3257 0.067082,0.25743 0.062672,0.61462 -0.00982,0.79375 -0.072477,0.17913 -0.1273625,-0.0315 -0.1219703,-0.46805 z M 214.40178,205.11834 c -1.12432,-0.77721 -3.14838,-1.44066 -4.39518,-1.44066 -0.36467,0 -0.52779,-0.38199 -0.77248,-1.80899 -0.17063,-0.99495 -0.3802,-1.99135 -0.46572,-2.21424 -0.1116,-0.29082 0.14904,-0.5271 0.92316,-0.83684 1.60391,-0.64175 3.36825,-0.55202 4.98478,0.25353 l 1.37485,0.68512 -0.0233,1.89457 c -0.0127,1.04201 -0.10205,2.44328 -0.19844,3.11395 l -0.17526,1.21938 -1.25254,-0.86582 z m -8.50011,-0.83045 c -0.42865,-0.42867 1.31649,-4.31438 1.93768,-4.31438 0.17901,0 0.9045,3.44619 0.74977,3.56152 -0.24622,0.18352 -2.59797,0.84234 -2.68745,0.75286 z m 8.85537,-6.09069 c -1.66958,-0.78872 -3.63366,-0.87461 -5.1843,-0.22671 -0.55613,0.23236 -1.03632,0.39114 -1.06712,0.35285 -0.0308,-0.0383 -0.26691,-0.72446 -0.52469,-1.52483 -5.12276,-15.9054 -19.00666,-27.62394 -35.26881,-29.76823 -3.19494,-0.42127 -8.51376,-0.49135 -10.90051,-0.14362 -0.80036,0.11661 -1.4864,0.18586 -1.52452,0.1539 -0.0381,-0.032 0.79531,-0.63438 1.85208,-1.33871 9.7789,-6.51758 21.91232,-9.76166 33.15316,-8.86407 4.07267,0.3252 8.93209,1.235 12.42449,2.32614 1.93384,0.6042 2.44398,0.87449 2.7151,1.4386 0.55753,1.16002 2.91142,9.6658 3.61005,13.04495 0.7279,3.52074 1.32737,7.5654 1.74506,11.77396 0.2921,2.94321 0.68787,13.50906 0.50462,13.4717 -0.0595,-0.0121 -0.75007,-0.3253 -1.53461,-0.69593 z m -75.56746,-5.90805 c -0.40782,-1.23063 -1.31875,-3.47444 -2.02427,-4.98624 l -1.28277,-2.74874 1.46111,-1.7859 c 3.8807,-4.74337 9.66014,-9.21222 15.0468,-11.63467 2.89103,-1.30013 3.10405,-1.25439 1.44805,0.31093 -5.32719,5.0355 -10.68079,13.45231 -13.04555,20.50989 l -0.86187,2.57225 z M -12.479023,187.8774 c 0.402183,-0.0608 0.997495,-0.0592 1.322917,0.004 0.325421,0.0628 -0.0036,0.11256 -0.731242,0.11058 -0.727605,-0.002 -0.993857,-0.0534 -0.591675,-0.11419 z m -3.438186,-0.25807 c 0.257431,-0.0671 0.614619,-0.0627 0.79375,0.01 0.179131,0.0725 -0.03149,0.12737 -0.468056,0.12197 -0.436563,-0.005 -0.583126,-0.0647 -0.325694,-0.13177 z m 7.4032982,0.001 c 0.2546614,-0.0665 0.6713802,-0.0665 0.9260416,0 0.2546615,0.0666 0.046302,0.121 -0.4630208,0.121 -0.5093229,0 -0.7176823,-0.0545 -0.4630208,-0.121 z m 2.2654948,-0.26294 c 0.1909947,-0.0764 0.4191979,-0.067 0.5071189,0.0209 0.087918,0.0879 -0.068353,0.15046 -0.3472656,0.13897 -0.3082264,-0.0127 -0.3709194,-0.0754 -0.1598533,-0.15985 z m -15.875,-0.79375 c 0.190995,-0.0764 0.419198,-0.067 0.507119,0.0209 0.08792,0.0879 -0.06835,0.15046 -0.347266,0.13897 -0.308226,-0.0127 -0.370919,-0.0754 -0.159853,-0.15985 z m 59.000631,-2.48421 -2.300021,-2.2709 2.300021,-2.26113 c 2.355302,-2.31548 5.600398,-4.87309 7.730778,-6.09301 2.754545,-1.57733 4.176533,-2.30844 5.518991,-2.83759 l 1.421289,-0.56022 -2.799683,2.94241 c -1.539825,1.61832 -3.227173,3.55738 -3.749667,4.309 -2.17356,3.12675 -3.812606,5.67942 -4.445095,6.92285 -1.217319,2.39315 -1.094309,2.39821 -3.676613,-0.15141 z m -32.2986614,1.57378 c 0.1794774,-0.18082 0.3929697,-0.26211 0.4744323,-0.18065 0.081462,0.0815 -0.065381,0.22941 -0.3263186,0.32877 -0.3770842,0.14358 -0.4074742,0.11319 -0.1481137,-0.14812 z M 3.6116655,183.4151 c 0.0127,-0.30823 0.07539,-0.37092 0.1598507,-0.15986 0.07643,0.191 0.067032,0.41921 -0.020876,0.50712 -0.087918,0.0879 -0.1504527,-0.0684 -0.1389645,-0.34726 z m 129.9486745,-2.726 c -4.74034,-7.53557 -12.80023,-14.8033 -21.11475,-19.03949 -8.00081,-4.07636 -15.029507,-5.73112 -24.320438,-5.72575 -4.261239,0.002 -5.987206,0.11982 -8.863542,0.60267 -8.200102,1.37656 -16.51358,4.87048 -22.754167,9.56294 -1.674841,1.25936 -2.314546,1.56808 -4.101041,1.97916 -6.269115,1.44256 -13.54477,5.45027 -18.41907,10.14592 l -1.485736,1.43128 -4.539956,-4.51412 -4.539954,-4.51412 1.035577,-1.52777 c 1.50341,-2.21796 3.924768,-7.18951 4.786635,-9.82797 0.859184,-2.63023 1.756937,-6.89662 2.095003,-9.95604 0.245279,-2.21973 0.185002,-7.06084 -0.109331,-8.7811 -0.873467,-5.10501 -2.045957,-9.51281 -3.063068,-11.51513 -0.274254,-0.53991 -0.498642,-1.18129 -0.498642,-1.4253 0,-0.98474 8.284406,-9.51809 13.229167,-13.6267 4.574884,-3.80127 7.754998,-6.11112 12.800811,-9.29773 3.893527,-2.45891 4.037926,-2.50791 4.238564,-1.43842 0.488953,2.60635 2.502363,7.98612 5.117169,13.67292 0.791591,1.72159 2.846885,5.23187 4.543952,7.76072 0.667176,0.99417 1.391639,2.07381 1.60992,2.3992 2.043137,3.04562 7.622392,9.11452 11.244792,12.23165 11.446581,9.84994 25.067425,15.62767 40.194805,17.04997 4.84286,0.45532 13.61117,0.19158 18.01353,-0.54184 9.81372,-1.63495 18.18151,-4.71578 26.16354,-9.63283 1.47183,-0.90666 2.84327,-1.74929 3.04765,-1.87251 0.43559,-0.26261 0.37344,-0.14386 -1.0333,1.97439 -1.25071,1.8833 -4.14326,7.17009 -4.76981,8.71792 -0.26804,0.66217 -0.91786,2.21598 -1.44403,3.45291 -0.52617,1.23693 -1.40922,3.7863 -1.96235,5.66527 l -1.00567,3.41631 -1.42822,0.35908 c -7.38241,1.8561 -14.10833,5.63565 -19.74368,11.09472 l -2.48929,2.41141 z M 16.026193,178.70695 c 0,-0.0549 0.20836,-0.2633 0.463021,-0.46302 0.419645,-0.32911 0.429004,-0.31975 0.0999,0.0999 -0.345643,0.44073 -0.562917,0.58088 -0.562917,0.36312 z M -8.6506131,174.2761 c 0.1794775,-0.18082 0.3929697,-0.26212 0.4744323,-0.18065 0.081463,0.0815 -0.065381,0.2294 -0.3263186,0.32876 -0.3770841,0.14359 -0.4074742,0.1132 -0.1481137,-0.14811 z M 16.34695,163.51703 c -3.921826,-3.9111 -6.266201,-6.4404 -6.192292,-6.68072 0.06541,-0.21272 0.809863,-1.9941 1.654331,-3.95863 2.59498,-6.03685 6.364404,-12.79756 10.10499,-18.12396 2.534539,-3.60905 4.815065,-6.469 5.002022,-6.27292 0.390735,0.40981 2.147592,5.91745 2.802753,8.78646 0.622268,2.72497 0.694827,3.58149 0.694827,8.20209 0,4.63726 -0.07141,5.4734 -0.705593,8.26253 -0.885507,3.8944 -2.264635,7.87959 -3.733152,10.78747 -1.124844,2.22736 -2.9786,5.29166 -3.201196,5.29166 -0.0635,0 -2.955512,-2.83229 -6.42669,-6.29398 z m -10.0894511,5.08131 c 0.0127,-0.30822 0.07539,-0.37092 0.1598506,-0.15985 0.07643,0.19099 0.067032,0.4192 -0.020876,0.50712 -0.087918,0.0879 -0.1504527,-0.0684 -0.1389645,-0.34727 z m -4.2542222,-1.00389 c 0,-0.0549 0.2083593,-0.2633 0.4630208,-0.46302 0.419645,-0.32911 0.4290034,-0.31975 0.099896,0.0999 -0.3456437,0.44073 -0.5629169,0.58088 -0.5629168,0.36312 z m 157.0552033,-1.8029 c 1.50021,-5.23467 2.60783,-8.05565 5.12239,-13.04616 2.45237,-4.86707 5.31706,-9.23794 8.72537,-13.31294 2.84245,-3.39844 7.45423,-7.97903 9.96249,-9.89508 l 1.61023,-1.23007 1.95623,2.3843 c 4.00571,4.88224 10.55416,10.75941 15.734,14.1211 l 2.1253,1.37931 1.62237,3.40898 c 1.60038,3.36279 3.78433,8.6093 3.78433,9.09111 0,0.13614 -0.50601,0.0685 -1.12448,-0.15028 -1.96053,-0.69358 -4.96707,-1.41544 -8.38996,-2.01441 -4.97304,-0.87023 -12.45704,-0.81692 -17.74418,0.12638 -8.29677,1.48026 -15.76128,4.66935 -22.53951,9.62963 l -1.24709,0.91262 z m 28.03701,-14.47187 c 3.45125,-1.56757 4.79007,-5.82905 2.82824,-9.00225 -3.22419,-5.21499 -11.05613,-3.27403 -11.6481,2.8867 -0.22185,2.30884 1.47892,5.0641 3.7766,6.11811 1.3778,0.63203 3.64865,0.63088 5.04326,-0.003 z m -66.49251,4.2035 c -4.48097,-0.47071 -14.00632,-2.56405 -16.31442,-3.58536 -0.44967,-0.19897 -2.06773,-0.85116 -3.5957,-1.44932 -12.930928,-5.06212 -24.933476,-14.97793 -32.883748,-27.16665 -2.244955,-3.44179 -5.025199,-8.86843 -6.293823,-12.28467 -1.381059,-3.719 -2.53378,-7.19117 -2.723984,-8.20504 l -0.1808,-0.96375 1.949056,-1.0697 c 7.945821,-4.36092 19.469013,-8.234317 30.476007,-10.244182 6.456736,-1.178991 11.000812,-1.55298 18.785412,-1.546077 8.00492,0.0071 12.50024,0.401066 19.51068,1.709915 5.41417,1.010822 7.48775,1.530527 12.76849,3.200178 10.90978,3.449428 20.70186,8.424456 30.51938,15.505866 2.15121,1.55167 2.23204,1.64971 3.09165,3.74968 1.33309,3.25668 3.90117,7.98692 6.22118,11.45903 l 2.07709,3.10855 -0.92857,0.63097 c -2.87366,1.9527 -7.84004,6.86884 -11.71036,11.5919 -1.35113,1.64883 -2.28401,2.43914 -4.90773,4.15775 -6.1898,4.05448 -13.92251,7.52246 -20.70204,9.28451 -5.94482,1.5451 -10.53398,2.15258 -17.02206,2.25328 -3.27422,0.0508 -6.93528,-0.0108 -8.13571,-0.13688 z m 80.75278,-12.25205 c -5.00573,-3.47291 -10.98598,-8.97946 -14.6236,-13.46523 l -1.65218,-2.03741 1.92571,-1.28924 c 1.05914,-0.70908 2.06222,-1.36924 2.22905,-1.46701 0.52969,-0.31042 6.18072,6.79716 9.74361,12.25502 2.19643,3.36464 4.40909,7.1474 4.16962,7.12835 -0.10652,-0.008 -0.913,-0.51449 -1.79221,-1.12448 z m 19.84415,-1.78621 c -6.36911,-0.49134 -14.24591,-2.36725 -20.16983,-4.80357 -1.6079,-0.66128 -2.06306,-0.9935 -2.76891,-2.02096 -2.14732,-3.12571 -5.49535,-7.41358 -7.28806,-9.33391 l -0.89674,-0.96057 2.8671,-1.57629 c 14.19156,-7.80228 30.44668,-10.57692 46.23191,-7.89146 8.38189,1.42597 15.36152,3.83331 22.51644,7.76612 2.29267,1.2602 8.06979,4.98706 8.06979,5.20587 0,0.22377 -6.87173,4.50102 -9.26042,5.76406 -11.76578,6.2213 -25.3216,8.92917 -39.30128,7.85071 z m -38.39179,-16.9848 c -2.08633,-3.14024 -3.99198,-6.534 -5.50539,-9.80456 l -1.20111,-2.59566 2.00711,1.64007 c 1.10391,0.90204 3.68693,3.27048 5.74004,5.26321 l 3.73293,3.62313 -1.44182,2.15901 c -0.793,1.18745 -1.50134,2.1595 -1.5741,2.16011 -0.0728,5.3e-4 -0.86371,-1.09978 -1.75766,-2.44531 z m 4.30743,0.3367 c 0.69882,-1.19001 1.10342,-1.48494 1.49634,-1.09072 0.32306,0.32413 -0.20953,0.91062 -1.49634,1.64776 -0.48086,0.27546 -0.48086,0.26181 0,-0.55704 z m -1.8993,-5.67899 c -2.18252,-2.19444 -5.51771,-5.19315 -9.30371,-8.36511 -1.08667,-0.91042 -3.57353,-9.90122 -4.49633,-16.255664 -0.65421,-4.504986 -0.6508,-14.882297 0.006,-19.446875 1.20863,-8.394563 4.00534,-16.861547 8.04023,-24.341667 1.25637,-2.329132 4.86326,-7.940008 5.10041,-7.934195 0.13492,0.0033 2.62951,3.712236 4.18911,6.228331 3.04856,4.918218 6.81418,14.779771 8.08124,21.163518 1.18565,5.97353 1.35863,7.871275 1.3496,14.805888 -0.012,9.214178 -0.85396,14.558134 -3.57263,22.675584 -1.30359,3.89229 -5.21952,12.39451 -6.26032,13.59234 -0.47441,0.54598 -0.49261,0.53366 -3.134,-2.12215 z"
         id="path3772"
         inkscape:connector-curvature="0" />
      <path
         style="fill:#ea6436;stroke-width:0.26458332"
         d="m 106.2471,208.37404 c -0.005,-3.48169 -1.11438,-9.21812 -2.57112,-13.29532 -1.47376,-4.12482 -5.166337,-10.384 -7.84499,-13.29782 -0.50039,-0.54432 -1.152064,-1.28733 -1.448159,-1.65114 l -0.538361,-0.66145 7.81728,-7.84291 7.81727,-7.8429 -0.0936,-1.30662 -0.0936,-1.30661 1.85208,0.84668 c 7.65491,3.49945 15.12445,9.82179 20.39605,17.26355 l 1.94003,2.73867 -0.93041,1.23861 c -3.83869,5.11026 -6.3699,10.37958 -7.90309,16.45215 -0.76503,3.03009 -1.19945,6.05561 -1.19945,8.35352 v 1.70065 h -8.59896 -8.59896 l -0.002,-1.38906 z m 21.43811,0 c 0.0112,-3.20802 1.14301,-9.25418 2.34298,-12.51622 1.72205,-4.68128 4.78788,-10.37152 5.38816,-10.00053 0.65371,0.40401 3.90737,8.9334 3.90254,10.23041 -0.002,0.46371 -0.18003,1.49795 -0.39623,2.29831 -0.55394,2.05072 -1.18813,7.07154 -1.18813,9.40626 v 1.97083 h -5.02709 -5.02708 l 0.005,-1.38906 z m 89.23456,-1.0232 c -0.33248,-0.33247 -0.16479,-4.82766 0.20611,-5.52524 0.35777,-0.67287 0.77845,0.89454 0.76803,2.86149 -0.0103,1.93463 -0.4636,3.17429 -0.97414,2.66375 z m -1.47757,-1.48721 c -0.42614,-0.65816 -2.56333,-1.68947 -4.18772,-2.02082 l -1.66634,-0.3399 -0.32404,-1.69855 c -0.4804,-2.51829 -0.46405,-2.60672 0.56089,-3.03497 1.43267,-0.59861 3.27443,-0.48406 4.85135,0.30175 l 1.37485,0.68512 -0.0262,1.76228 c -0.0379,2.54917 -0.33091,4.73412 -0.58282,4.34509 z m -9.44517,-2.32674 c 0,-0.94905 0.6132,-2.26924 1.38364,-2.97899 l 0.65809,-0.60624 0.16468,1.20137 c 0.0906,0.66075 0.23529,1.48276 0.3216,1.82667 0.14081,0.56104 0.0341,0.65623 -1.03812,0.92623 -1.55241,0.3909 -1.48989,0.40639 -1.48989,-0.36904 z m 8.73125,-5.38677 c -1.74443,-0.80252 -3.90988,-0.87822 -5.2501,-0.18354 -0.48647,0.25215 -0.91432,0.41991 -0.95076,0.3728 -0.0364,-0.0471 -0.46953,-1.27628 -0.96239,-2.73149 -4.57163,-13.49777 -16.5206,-24.40605 -30.42155,-27.77199 -3.96511,-0.9601 -7.68284,-1.2919 -12.5131,-1.11677 l -4.1927,0.15202 2.4117,-1.57285 c 4.26366,-2.78064 8.80572,-4.88852 13.54689,-6.28686 8.37562,-2.47025 16.73014,-2.93418 24.83826,-1.37929 3.45725,0.663 8.50008,2.06823 8.89473,2.4786 0.26707,0.2777 1.28056,3.4694 2.70217,8.50964 1.98143,7.0252 3.71498,21.17632 3.43794,28.06418 l -0.0859,2.13501 z m -75.52314,-5.85119 c -0.4001,-1.23601 -1.30476,-3.47119 -2.01035,-4.96706 l -1.28288,-2.71977 1.21055,-1.51357 c 3.50698,-4.38482 7.502,-7.71465 12.74289,-10.62115 4.0947,-2.27085 6.42631,-2.97214 4.17665,-1.25625 -1.3613,1.03832 -5.71345,6.33697 -7.6901,9.36256 -2.12309,3.24972 -4.74825,8.63115 -5.71491,11.71524 l -0.70438,2.24729 z m -151.552424,-4.4188 c 0.329118,-0.0633 0.805368,-0.0609 1.058333,0.005 0.252966,0.0662 -0.01632,0.118 -0.598397,0.11507 -0.582084,-0.003 -0.789054,-0.0571 -0.459936,-0.12041 z m 47.158894,-6.26276 c 0,-0.0549 0.208359,-0.2633 0.463021,-0.46302 0.419645,-0.32911 0.429003,-0.31975 0.0999,0.0999 -0.345644,0.44073 -0.562917,0.58089 -0.562917,0.36313 z m 97.90603,-2.19419 c -2.63307,-4.00491 -7.90229,-9.56171 -11.91645,-12.56682 -2.74529,-2.0552 -6.28018,-4.23905 -9.02543,-5.57588 l -2.31385,-1.12676 -0.085,-2.8417 c -0.0727,-2.42986 -0.0275,-2.82369 0.31182,-2.71743 1.33429,0.41779 6.02136,1.22791 9.28595,1.605 5.73781,0.66274 15.11284,0.42704 20.47968,-0.51491 9.37945,-1.64621 17.99841,-4.90443 25.85503,-9.77397 l 2.83628,-1.75793 -1.40012,2.17964 c -0.77007,1.1988 -1.58694,2.53682 -1.81527,2.97339 -0.22834,0.43656 -0.94972,1.80578 -1.60309,3.0427 -2.01839,3.82116 -5.48429,13.11349 -5.48429,14.70378 0,0.19882 -0.49836,0.48387 -1.12448,0.64318 -3.97097,1.01033 -8.67681,2.89623 -11.75348,4.71031 -3.14993,1.85726 -6.6738,4.60465 -9.20647,7.17783 -0.86857,0.88247 -1.64699,1.60449 -1.72982,1.60449 -0.0828,0 -0.67277,-0.79422 -1.31097,-1.76492 z m -94.863322,-0.88092 c 0.26339,-0.29104 0.538422,-0.52916 0.611183,-0.52916 0.07276,0 -0.08321,0.23812 -0.346599,0.52916 -0.26339,0.29105 -0.538422,0.52917 -0.611183,0.52917 -0.07276,0 0.08321,-0.23812 0.346599,-0.52917 z m 10.645069,-7.17658 c 0.179477,-0.18082 0.39297,-0.26211 0.474432,-0.18065 0.08146,0.0815 -0.06538,0.22941 -0.326318,0.32877 -0.377085,0.14358 -0.407475,0.11319 -0.148114,-0.14812 z m 2.187223,-0.8649 c 0,-0.0572 0.184777,-0.17489 0.410617,-0.26155 0.235458,-0.0904 0.341662,-0.046 0.248968,0.10398 -0.155379,0.25141 -0.659585,0.37186 -0.659585,0.15757 z m 10.637904,-3.79612 c 0.975899,-0.0508 2.642774,-0.0511 3.704166,-7.9e-4 1.061392,0.0504 0.26293,0.0919 -1.774362,0.0923 -2.037291,5.3e-4 -2.905704,-0.0408 -1.929804,-0.0915 z m 97.576676,-0.1537 c 0,-0.78797 2.43525,-7.7231 3.68645,-10.49828 2.69523,-5.97811 5.44047,-10.51962 9.27621,-15.34583 2.52329,-3.17487 7.6575,-8.39086 10.60294,-10.77183 l 2.00206,-1.61838 1.74721,2.16021 c 4.25701,5.26326 11.12984,11.40481 16.38602,14.64251 1.62928,1.0036 1.6547,1.03813 3.27554,4.45103 1.44486,3.04238 3.82357,8.80073 3.82357,9.25609 0,0.0923 -0.12837,0.0885 -0.2853,-0.008 -0.71408,-0.44134 -5.88933,-1.75097 -9.05504,-2.29144 -4.53541,-0.77432 -12.62348,-0.83229 -16.72111,-0.11985 -8.91446,1.54992 -15.30317,4.07562 -22.29115,8.81253 -1.34607,0.91245 -2.4474,1.51172 -2.4474,1.33171 z m 28.51765,-15.37356 c 4.73115,-2.43367 4.52535,-9.35646 -0.33952,-11.42072 -2.16373,-0.91811 -5.1721,-0.40724 -6.84649,1.16264 -1.07356,1.00656 -2.01142,3.12508 -2.01426,4.55003 -0.003,1.30277 1.15129,4.05609 2.01045,4.79716 1.9313,1.66585 4.973,2.05121 7.18982,0.91089 z m -80.1114,8.18257 c -0.3638,-0.20797 -0.54239,-0.37812 -0.39687,-0.37812 0.14552,0 0.56224,0.17015 0.92604,0.37812 0.3638,0.20797 0.5424,0.37813 0.39687,0.37813 -0.14552,0 -0.56223,-0.17016 -0.92604,-0.37813 z m -38.629163,-0.13229 c 0.218281,-0.14106 0.515937,-0.25648 0.661458,-0.25648 0.145521,0 0.08599,0.11542 -0.132292,0.25648 -0.218281,0.14107 -0.515937,0.25648 -0.661458,0.25648 -0.145521,0 -0.08599,-0.11541 0.132292,-0.25648 z m 12.633854,-2.02731 c 0.181901,-0.0734 0.479557,-0.0734 0.661458,0 0.181901,0.0734 0.03307,0.13345 -0.330729,0.13345 -0.363802,0 -0.51263,-0.06 -0.330729,-0.13345 z m 12.964583,0 c 0.181901,-0.0734 0.479557,-0.0734 0.661458,0 0.181902,0.0734 0.03307,0.13345 -0.330729,0.13345 -0.363802,0 -0.51263,-0.06 -0.330729,-0.13345 z m -10.847917,-0.27608 c 0.327422,-0.0631 0.863204,-0.0631 1.190625,0 0.327422,0.0631 0.05953,0.11466 -0.595312,0.11466 -0.654844,0 -0.922734,-0.0516 -0.595313,-0.11466 z m 8.07343,-0.003 c 0.402183,-0.0608 0.997495,-0.0592 1.322917,0.004 0.325421,0.0628 -0.0036,0.11256 -0.731242,0.11057 -0.727605,-0.002 -0.993857,-0.0534 -0.591675,-0.11419 z m -12.290226,-0.52005 c 0.190994,-0.0764 0.4192,-0.067 0.507119,0.0209 0.08792,0.0879 -0.06835,0.15045 -0.347266,0.13896 -0.308226,-0.0127 -0.370919,-0.0754 -0.159853,-0.15985 z m 17.4625,0 c 0.190994,-0.0764 0.4192,-0.067 0.507119,0.0209 0.08792,0.0879 -0.06835,0.15045 -0.347266,0.13896 -0.308226,-0.0127 -0.370919,-0.0754 -0.159853,-0.15985 z m -16.15612,-0.25908 c 0.181901,-0.0734 0.479557,-0.0734 0.661458,0 0.181901,0.0734 0.03307,0.13345 -0.330729,0.13345 -0.363802,0 -0.51263,-0.0601 -0.330729,-0.13345 z m 14.552083,0 c 0.181901,-0.0734 0.479557,-0.0734 0.661459,0 0.181901,0.0734 0.03307,0.13345 -0.33073,0.13345 -0.363802,0 -0.51263,-0.0601 -0.330729,-0.13345 z m -12.7,-0.26459 c 0.181901,-0.0734 0.479557,-0.0734 0.661458,0 0.181902,0.0734 0.03307,0.13346 -0.330729,0.13346 -0.363802,0 -0.51263,-0.0601 -0.330729,-0.13346 z m 10.72066,-0.008 c 0.257432,-0.0671 0.614619,-0.0627 0.79375,0.01 0.179131,0.0725 -0.03149,0.12736 -0.468056,0.12197 -0.436562,-0.005 -0.583125,-0.0647 -0.325694,-0.13178 z m -7.013408,-0.26836 c 0.329118,-0.0633 0.805368,-0.0609 1.058333,0.005 0.252966,0.0662 -0.01632,0.118 -0.598397,0.11506 -0.582084,-0.003 -0.789054,-0.0571 -0.459936,-0.1204 z m 3.175,0 c 0.329118,-0.0633 0.805368,-0.0609 1.058333,0.005 0.252966,0.0662 -0.01632,0.118 -0.598397,0.11506 -0.582084,-0.003 -0.789054,-0.0571 -0.459936,-0.1204 z m 31.945354,-0.0662 c -2.4991,-0.22835 -9.44273,-1.43631 -10.91406,-1.89869 l -0.8599,-0.27022 V 121.25154 89.137275 l -1.65365,-0.109794 c -0.9095,-0.06039 0.78714,-0.06926 3.77032,-0.01971 8.7293,0.144967 16.18128,1.129112 24.87083,3.284571 3.71228,0.920835 10.20827,3.064764 13.23906,4.369404 1.23149,0.530106 3.05162,1.307623 4.04474,1.727814 1.80792,0.764931 8.45821,4.17832 9.70484,4.98119 0.82598,0.53196 1.31498,0.8337 3.29602,2.03378 2.05255,1.24339 7.40706,5.06422 7.88682,5.6278 0.2051,0.24094 0.86223,1.56916 1.46029,2.95161 1.39085,3.21502 3.98321,7.90902 6.12644,11.0932 l 1.67885,2.49424 -0.76593,0.64271 c -5.20238,4.36546 -9.32928,8.5069 -11.97928,12.02148 -0.80069,1.06193 -1.94188,2.05333 -3.82729,3.32494 -6.83416,4.60925 -13.95596,7.8436 -21.60414,9.81146 -5.81293,1.49566 -10.70785,2.16446 -16.66875,2.27749 -2.98318,0.0566 -6.49552,0.005 -7.80521,-0.11473 z m -90.598904,-1.75305 c 0.0127,-0.30822 0.07539,-0.37091 0.15985,-0.15985 0.07643,0.191 0.06703,0.4192 -0.02088,0.50712 -0.08792,0.0879 -0.150453,-0.0684 -0.138965,-0.34727 z m 0.264583,-1.05833 c 0.0127,-0.30822 0.07539,-0.37092 0.159851,-0.15985 0.07643,0.19099 0.06703,0.4192 -0.02088,0.50712 -0.08792,0.0879 -0.150453,-0.0684 -0.138965,-0.34727 z m -1.058333,-0.79375 c 0.0127,-0.30822 0.07539,-0.37092 0.15985,-0.15985 0.07643,0.19099 0.06703,0.4192 -0.02088,0.50712 -0.08792,0.0879 -0.150453,-0.0684 -0.138965,-0.34727 z m 1.322916,-0.79375 c 0.0127,-0.30822 0.07539,-0.37092 0.159851,-0.15985 0.07643,0.19099 0.06703,0.4192 -0.02088,0.50712 -0.08792,0.0879 -0.150452,-0.0684 -0.138964,-0.34727 z m -1.027641,-0.7717 c 0.0054,-0.43656 0.06469,-0.58313 0.131773,-0.32569 0.06708,0.25743 0.06267,0.61461 -0.0098,0.79375 -0.07248,0.17913 -0.127363,-0.0315 -0.121971,-0.46806 z m 66.358836,-0.39688 c -0.238467,-0.15411 -0.2711,-0.25809 -0.08176,-0.26053 0.173313,-0.002 0.388699,0.11501 0.478637,0.26053 0.203014,0.32849 0.111421,0.32849 -0.396875,0 z M 13.38036,149.18913 c 0,-0.13693 0.1177,-0.32171 0.261554,-0.41062 0.149982,-0.0927 0.194336,0.0135 0.103984,0.24897 -0.175893,0.45837 -0.365538,0.54223 -0.365538,0.16165 z m 18.012556,-0.16996 c 0.0127,-0.30822 0.07539,-0.37091 0.15985,-0.15985 0.07643,0.191 0.06703,0.4192 -0.02087,0.50712 -0.08792,0.0879 -0.150453,-0.0684 -0.138965,-0.34727 z m 169.841614,-5.84773 c -4.97005,-3.50421 -10.93884,-9.007 -14.47897,-13.34856 l -1.64668,-2.01945 2.17584,-1.49373 2.17585,-1.49373 0.87511,1.00013 c 1.89884,2.17011 6.1522,7.75972 7.9184,10.40609 2.28107,3.41782 5.13426,8.1937 4.88407,8.17532 -0.10112,-0.007 -0.95774,-0.55916 -1.90362,-1.22607 z m -184.943753,0.46144 c 0,-0.13693 0.1177,-0.32171 0.261554,-0.41062 0.149981,-0.0927 0.194336,0.0135 0.103983,0.24897 -0.175892,0.45837 -0.365537,0.54223 -0.365537,0.16165 z m 15.102139,-1.75746 c 0.0127,-0.30822 0.07539,-0.37091 0.15985,-0.15985 0.07643,0.191 0.06703,0.4192 -0.02087,0.50712 -0.08792,0.0879 -0.150453,-0.0684 -0.138965,-0.34727 z m 189.817654,-0.39144 c -5.92802,-0.50292 -13.29923,-2.20313 -18.92088,-4.36422 l -3.04591,-1.17091 -2.15653,-2.97881 c -1.1861,-1.63835 -3.17896,-4.20111 -4.42859,-5.69501 -1.24963,-1.49391 -2.27052,-2.8036 -2.26864,-2.91042 0.004,-0.24595 5.30683,-3.10303 7.78256,-4.19338 6.91309,-3.04461 13.62948,-4.85247 22.05091,-5.93546 3.65125,-0.46954 12.36503,-0.32077 16.5545,0.28264 11.39994,1.64195 21.42453,5.4358 30.26458,11.45378 l 2.70494,1.84141 -1.38203,0.96316 c -3.43148,2.39148 -5.32045,3.5291 -8.52575,5.13454 -7.59396,3.80359 -14.96022,6.09768 -23.15104,7.20997 -3.58706,0.48712 -11.75541,0.67853 -15.47812,0.36271 z M 30.110493,140.70685 c 0,-0.50933 0.05445,-0.71768 0.121002,-0.46302 0.06655,0.25466 0.06655,0.67138 0,0.92604 -0.06655,0.25466 -0.121002,0.0463 -0.121002,-0.46302 z m 1.017839,-0.94809 c 0.0127,-0.30823 0.07539,-0.37092 0.159851,-0.15986 0.07643,0.191 0.06703,0.41921 -0.02088,0.50712 -0.08792,0.0879 -0.150452,-0.0684 -0.138964,-0.34726 z m -1.322916,-0.79375 c 0.0127,-0.30823 0.07539,-0.37092 0.15985,-0.15986 0.07643,0.191 0.06703,0.41921 -0.02088,0.50712 -0.08792,0.0879 -0.150453,-0.0684 -0.138965,-0.34726 z m 49.687027,-0.30868 c -0.329107,-0.41965 -0.319749,-0.42901 0.0999,-0.0999 0.44073,0.34564 0.580888,0.56292 0.363125,0.56292 -0.05494,0 -0.2633,-0.20836 -0.463021,-0.46302 z m -48.628694,-0.22049 c 0.0127,-0.30822 0.07539,-0.37092 0.159851,-0.15985 0.07643,0.19099 0.06703,0.4192 -0.02088,0.50712 -0.08792,0.0879 -0.150453,-0.0684 -0.138965,-0.34727 z m 49.422444,-0.57326 c -0.329107,-0.41965 -0.319749,-0.42901 0.0999,-0.0999 0.254662,0.19972 0.463021,0.40808 0.463021,0.46302 0,0.21776 -0.217273,0.0776 -0.562917,-0.36312 z m -49.687027,-0.74966 c 0.0127,-0.30822 0.07539,-0.37091 0.15985,-0.15985 0.07643,0.191 0.06703,0.4192 -0.02088,0.50712 -0.08792,0.0879 -0.150453,-0.0684 -0.138965,-0.34727 z m -2.809894,-8.85909 c -0.09592,-0.1552 -0.117655,-0.33893 -0.0483,-0.40829 0.06935,-0.0694 0.196602,0.0576 0.282774,0.28219 0.178906,0.46622 0.02643,0.54823 -0.234474,0.1261 z m 42.971921,-0.71 c -0.329107,-0.41965 -0.319749,-0.42901 0.0999,-0.0999 0.254662,0.19972 0.463021,0.40808 0.463021,0.46302 0,0.21776 -0.217273,0.0776 -0.562917,-0.36312 z m 112.562457,-2.37607 c -0.71067,-0.98512 -1.9771,-2.94612 -2.81429,-4.35779 -1.50992,-2.54603 -4.25064,-8.13217 -4.07571,-8.30711 0.14994,-0.14993 6.78255,5.75707 9.01823,8.03162 l 2.07673,2.11284 -0.75074,1.15841 c -0.41291,0.63712 -1.06829,1.60723 -1.45642,2.15578 l -0.70567,0.99738 z m 3.9256,-0.47258 c 0.67366,-1.14176 0.88047,-1.27713 1.25737,-0.82299 0.23302,0.28077 0.0716,0.50636 -0.75276,1.05189 l -1.04941,0.69446 z m -2.55118,-6.12246 c -1.74625,-1.68154 -4.3061,-4.00863 -5.68854,-5.17132 -1.38245,-1.16269 -2.76588,-2.32639 -3.0743,-2.58601 -1.09116,-0.91852 -3.68824,-10.40992 -4.49034,-16.410626 -0.66213,-4.953489 -0.66459,-14.155772 -0.005,-19.05 0.72005,-5.343652 2.56016,-12.360598 4.44057,-16.933333 2.07353,-5.042342 5.35389,-11.11363 7.64281,-14.145276 l 1.11666,-1.479008 0.68654,0.99912 c 9.11027,13.258181 13.48205,28.032541 12.90049,43.597039 -0.43932,11.757782 -3.16662,21.724324 -8.70636,31.816144 -0.7389,1.34607 -1.41184,2.44137 -1.49544,2.43401 -0.0836,-0.007 -1.58073,-1.3892 -3.32698,-3.07074 z M 61.419245,113.7969 c -0.143584,-0.37708 -0.113194,-0.40747 0.148114,-0.14811 0.180821,0.17948 0.262115,0.39297 0.180652,0.47443 -0.08146,0.0815 -0.229407,-0.0654 -0.328766,-0.32632 z m 0.896903,-0.62938 c -0.16243,-0.3035 -0.245491,-0.60166 -0.184578,-0.66258 0.06091,-0.0609 0.246599,0.18741 0.412638,0.55183 0.364615,0.80024 0.187085,0.88645 -0.22806,0.11075 z m -3.141982,-8.86293 c 0.0127,-0.30822 0.07539,-0.37092 0.15985,-0.15985 0.07643,0.19099 0.06703,0.4192 -0.02087,0.50712 -0.08792,0.0879 -0.150453,-0.0684 -0.138965,-0.34727 z M 92.970334,90.255275 c 0.190995,-0.07643 0.419201,-0.06703 0.507119,0.02088 0.08792,0.08792 -0.06835,0.150453 -0.347266,0.138965 -0.308226,-0.0127 -0.370919,-0.07539 -0.159853,-0.159851 z m 1.30638,-0.259072 c 0.181901,-0.0734 0.479557,-0.0734 0.661458,0 0.181902,0.0734 0.03307,0.133453 -0.330729,0.133453 -0.363802,0 -0.51263,-0.06005 -0.330729,-0.133453 z m 8.069796,-0.800907 c 0.25466,-0.06655 0.67138,-0.06655 0.92604,0 0.25466,0.06655 0.0463,0.121002 -0.46302,0.121002 -0.50933,0 -0.71769,-0.05445 -0.46302,-0.121002 z"
         id="path3770"
         inkscape:connector-curvature="0" />
      <path
         style="fill:#e85725;stroke-width:0.26458332"
         d="m 106.3311,208.30789 c 0.002,-0.87313 0.0509,-1.19842 0.10976,-0.72287 0.0589,0.47555 0.0577,1.18993 -0.003,1.5875 -0.0604,0.39758 -0.10855,0.008 -0.10706,-0.86463 z m 3.10076,-21.4974 0.008,-22.9526 0.78226,-0.8599 c 0.43025,-0.47294 0.85936,-0.85989 0.95359,-0.85989 0.43538,0 4.1225,2.05091 6.29321,3.50051 3.09133,2.06439 6.11903,4.6015 8.81292,7.38492 2.57285,2.65837 2.91099,3.0666 5.30566,6.40543 l 1.86942,2.60649 -1.69402,2.2883 c -4.71322,6.36665 -7.84696,14.81975 -8.22934,22.1982 l -0.16795,3.24115 h -6.97063 -6.97063 l 0.008,-22.95261 z m 18.34513,20.6375 c 0.26997,-3.5778 1.19693,-8.40736 2.14556,-11.17864 0.94584,-2.76317 2.96387,-7.02017 4.3673,-9.21278 l 0.90095,-1.40756 0.45592,0.60443 c 0.25076,0.33244 0.89229,1.73975 1.42562,3.12736 0.53334,1.38761 1.20001,3.10877 1.48149,3.82481 0.81822,2.08139 0.86272,3.01386 0.26414,5.53423 -0.66933,2.81823 -1.07835,6.2124 -1.08127,8.97274 l -0.002,2.05052 h -5.06612 -5.06612 z m 88.9795,-0.26458 c -0.13914,-0.2307 0.31121,-5.40418 0.48562,-5.57859 0.0644,-0.0645 0.23958,0.20473 0.38917,0.59818 0.34449,0.90609 0.35288,3.60873 0.014,4.50016 -0.2521,0.66303 -0.64913,0.87757 -0.88876,0.48025 z m -2.4266,-2.16432 c -1.11731,-0.79244 -2.69687,-1.33747 -3.88326,-1.33993 -0.78385,-0.002 -0.81627,-0.0665 -1.29699,-2.59662 -0.34721,-1.82738 -0.29564,-1.94458 1.05405,-2.39583 1.70966,-0.5716 3.8268,-0.21552 5.19226,0.87328 l 0.72525,0.57829 -0.19275,2.82803 c -0.10602,1.55542 -0.27061,2.82273 -0.36573,2.81624 -0.0951,-0.006 -0.64992,-0.35005 -1.23283,-0.76346 z m -8.32704,-1.37925 c 0.007,-0.79772 0.83836,-2.63247 1.40433,-3.10081 0.51665,-0.42755 0.56322,-0.34008 0.91974,1.72766 l 0.23574,1.36715 -0.90474,0.16972 c -0.4976,0.0933 -1.07487,0.23502 -1.2828,0.31482 -0.2626,0.10077 -0.37632,-0.0454 -0.37227,-0.47854 z m -100.5266,-2.23317 c 0.0127,-0.30822 0.0754,-0.37091 0.15985,-0.15985 0.0764,0.191 0.067,0.4192 -0.0209,0.50712 -0.0879,0.0879 -0.15045,-0.0684 -0.13896,-0.34727 z m -0.26458,-1.05833 c 0.0127,-0.30822 0.0754,-0.37092 0.15985,-0.15985 0.0764,0.19099 0.067,0.4192 -0.0209,0.50712 -0.0879,0.0879 -0.15045,-0.0684 -0.13896,-0.34727 z m -0.26459,-1.05833 c 0.0127,-0.30823 0.0754,-0.37092 0.15985,-0.15986 0.0764,0.191 0.067,0.41921 -0.0209,0.50712 -0.0879,0.0879 -0.15046,-0.0684 -0.13897,-0.34726 z m 110.04578,-1.04519 c -1.72974,-0.89214 -3.18598,-1.061 -4.74694,-0.55043 -0.71808,0.23487 -1.4124,0.42704 -1.54289,0.42704 -0.1305,0 -0.56613,-0.97117 -0.96806,-2.15815 -5.31212,-15.68783 -19.62187,-27.32493 -35.75944,-29.08057 -1.70648,-0.18565 -4.64136,-0.25758 -7.17418,-0.17581 l -4.2863,0.13836 2.30193,-1.50482 c 6.11062,-3.99465 12.24742,-6.36472 20.29359,-7.83752 5.26935,-0.96452 11.88016,-0.96914 17.17429,-0.012 3.91295,0.70744 9.34511,2.16263 9.85567,2.6402 0.3854,0.36047 3.05848,9.71121 3.78828,13.25177 0.75838,3.6791 0.99399,5.24634 1.5997,10.64053 0.47852,4.26144 1.02624,14.93225 0.76295,14.86363 -0.0594,-0.0155 -0.64376,-0.30448 -1.2986,-0.64222 z m -75.91233,-6.49919 c -0.47584,-1.36826 -1.38837,-3.52707 -2.02784,-4.79735 l -1.16267,-2.30961 1.939,-2.3206 c 2.29218,-2.74329 3.74479,-4.11929 6.78467,-6.42689 2.35328,-1.78639 6.54931,-4.23535 8.94785,-5.22231 l 1.40723,-0.57904 -2.29985,2.44028 c -5.48413,5.81901 -9.59757,12.5361 -12.01031,19.61239 l -0.7129,2.09087 z m -36.93246,-0.23878 c -0.22576,-0.43656 -0.35093,-0.79375 -0.27817,-0.79375 0.0728,0 0.317,0.35719 0.54275,0.79375 0.22576,0.43656 0.35093,0.79375 0.27817,0.79375 -0.0728,0 -0.317,-0.35719 -0.54275,-0.79375 z m -4.399377,-7.34219 c -0.329107,-0.41965 -0.319749,-0.429 0.0999,-0.0999 0.44073,0.34565 0.580888,0.56292 0.363125,0.56292 -0.05494,0 -0.2633,-0.20836 -0.463021,-0.46302 z m 35.091047,-4.63067 c -3.43389,-5.35192 -11.18043,-12.77607 -16.42706,-15.7434 -0.44914,-0.25403 -1.63977,-0.92051 -2.64583,-1.48108 l -1.8292,-1.01921 2.63945,-2.62695 2.63945,-2.62694 2.59588,0.30178 c 1.61014,0.18719 5.12906,0.25455 9.2668,0.17737 5.66417,-0.10564 7.26987,-0.23006 10.63967,-0.82441 9.50255,-1.67602 18.53495,-5.19054 26.5602,-10.33459 l 1.9068,-1.22223 -1.29549,1.92428 c -1.85849,2.76053 -4.5659,8.0104 -6.10918,11.84615 -1.38209,3.4351 -2.93837,8.19569 -2.93837,8.9883 0,0.35195 -0.53041,0.59371 -2.3151,1.05519 -6.46267,1.6711 -13.509,5.66872 -18.65941,10.58611 -1.52872,1.45956 -2.82241,2.6527 -2.87488,2.65142 -0.0525,-0.001 -0.57165,-0.74457 -1.15373,-1.65179 z m 26.06145,-12.86805 c 0,-0.42187 1.83317,-6.14381 2.52415,-7.87873 4.40995,-11.07255 11.46003,-20.79304 20.64693,-28.4675 l 2.40129,-2.00596 1.51587,1.93524 c 4.05364,5.17509 12.23199,12.44469 17.27313,15.3538 0.62889,0.36292 1.1848,1.18054 2.23261,3.28375 1.42065,2.8516 4.24307,9.59855 4.08246,9.75913 -0.0486,0.0486 -1.32059,-0.27509 -2.82667,-0.71932 -4.89736,-1.44453 -8.94394,-1.98649 -14.90914,-1.99681 -9.01924,-0.0156 -14.49531,1.17332 -23.41563,5.08379 -1.56511,0.68611 -6.30436,3.52473 -8.10237,4.85301 -0.78245,0.57802 -1.42263,0.93784 -1.42263,0.7996 z m 27.48304,-14.99341 c 1.59174,-0.4727 3.26228,-2.00004 4.03556,-3.68964 1.311,-2.86453 -0.0755,-6.57726 -3.03817,-8.13528 -1.50366,-0.79076 -4.11815,-0.79782 -5.59397,-0.0151 -3.04535,1.61512 -4.38288,5.27848 -3.02235,8.27791 0.65022,1.43348 1.13406,1.99889 2.39779,2.80206 1.84261,1.17106 3.18102,1.3659 5.22114,0.76005 z m -103.203479,5.25774 c 0.190994,-0.0764 0.4192,-0.067 0.507119,0.0209 0.08792,0.0879 -0.06835,0.15045 -0.347266,0.13896 -0.308226,-0.0127 -0.370919,-0.0754 -0.159853,-0.15985 z m 30.691669,-1.32291 c 0.19099,-0.0764 0.4192,-0.067 0.50712,0.0209 0.0879,0.0879 -0.0684,0.15046 -0.34727,0.13897 -0.30823,-0.0127 -0.37092,-0.0754 -0.15985,-0.15985 z m 9.57461,0.006 c -0.65485,-0.0453 -2.14313,-0.14936 -3.3073,-0.23114 l -2.11666,-0.14869 24.60625,-24.65961 24.60625,-24.65962 0.93424,0.52917 c 1.24212,0.70354 6.21898,4.2871 6.52852,4.7008 0.13426,0.17945 0.58294,1.15972 0.99707,2.17836 1.40271,3.45036 4.07404,8.28861 6.67917,12.09715 0.7686,1.12365 1.39746,2.0925 1.39746,2.15301 0,0.0605 -0.81795,0.77091 -1.81767,1.57864 -3.04975,2.46408 -7.64215,7.02308 -9.89174,9.8198 -2.32714,2.89312 -2.28677,2.85586 -5.35622,4.94298 -5.77933,3.92976 -13.82154,7.56416 -20.6375,9.32642 -7.74668,2.00288 -15.78596,2.8461 -22.62187,2.37273 z m -6.68073,-0.79408 c 0.1819,-0.0734 0.47955,-0.0734 0.66146,0 0.1819,0.0734 0.0331,0.13345 -0.33073,0.13345 -0.36381,0 -0.51263,-0.0601 -0.33073,-0.13345 z m -1.30638,-0.2701 c 0.19099,-0.0764 0.4192,-0.067 0.50712,0.0209 0.0879,0.0879 -0.0684,0.15045 -0.34727,0.13896 -0.30823,-0.0127 -0.37092,-0.0754 -0.15985,-0.15985 z m 85.87152,-11.3726 c -2.80957,-1.90932 -7.1281,-5.51844 -9.75421,-8.15186 -2.3005,-2.30691 -6.2177,-6.7849 -6.2177,-7.10783 0,-0.15845 2.16416,-1.78713 3.48534,-2.62296 l 0.70723,-0.44741 2.60007,3.22548 c 3.84968,4.77567 6.93941,9.19218 9.20949,13.16417 0.70694,1.23693 1.46225,2.45732 1.67844,2.71198 0.61478,0.72412 0.24955,0.5592 -1.70866,-0.77157 z m 20.54059,-1.7126 c -5.39126,-0.36813 -13.99263,-2.19164 -18.52084,-3.92646 -4.08566,-1.56528 -4.01419,-1.51139 -6.47415,-4.88151 -1.2556,-1.72015 -3.2296,-4.25762 -4.38667,-5.63882 -1.15707,-1.38119 -2.10376,-2.59038 -2.10376,-2.68709 0,-0.0967 0.32742,-0.31549 0.7276,-0.48619 0.40019,-0.1707 1.56105,-0.79176 2.57969,-1.38012 2.11217,-1.21999 2.73407,-1.51774 6.21771,-2.97694 5.26148,-2.20388 9.46383,-3.4029 16.27187,-4.64269 3.69854,-0.67353 4.46416,-0.72274 11.2448,-0.72274 6.79659,0 7.54245,0.0482 11.31895,0.73176 9.12342,1.65133 15.7307,3.90203 22.68,7.72572 4.09086,2.2509 8.18235,5.03196 7.95179,5.40499 -0.25932,0.41959 -4.60893,3.18734 -7.57888,4.82259 -9.19731,5.06406 -19.17613,7.99675 -29.56428,8.6887 -4.49871,0.29965 -5.56554,0.29644 -10.36383,-0.0312 z m -38.28781,-15.90437 c -2.15419,-3.00288 -7.48263,-12.72453 -7.15428,-13.05288 0.15321,-0.15321 7.25231,6.20509 9.10946,8.15887 l 1.89966,1.99851 -1.31954,2.00999 c -0.72574,1.10549 -1.41158,2.00999 -1.52408,2.00999 -0.1125,0 -0.56755,-0.50601 -1.01122,-1.12448 z m 3.66503,-0.86427 c 0.67366,-1.14176 0.88047,-1.27713 1.25737,-0.82299 0.23302,0.28077 0.0716,0.50636 -0.75276,1.05189 l -1.04941,0.69446 z m -2.55118,-6.13531 c -1.74625,-1.68846 -4.55829,-4.24414 -6.24898,-5.67928 -2.90476,-2.46571 -3.09901,-2.69286 -3.52878,-4.12644 -0.25015,-0.8344 -0.6809,-2.23147 -0.95723,-3.10459 -0.7558,-2.38816 -1.89215,-7.040228 -1.75354,-7.178835 0.067,-0.06704 0.2011,0.300387 0.29792,0.816493 0.0968,0.51611 0.25948,0.938382 0.36145,0.938382 0.10197,0 5.73993,-5.553583 12.52879,-12.341291 l 12.34338,-12.341291 0.22537,2.35327 c 0.37125,3.87654 0.2154,12.826963 -0.28481,16.357018 -0.88113,6.218234 -1.80188,9.899894 -3.90881,15.629584 -1.17566,3.19714 -4.47172,10.02867 -5.34638,11.08106 l -0.55338,0.66584 z m -27.26766,-18.21658 c -0.49319,-0.395124 -0.48995,-0.400008 0.0817,-0.12298 0.32742,0.15867 0.59531,0.34383 0.59531,0.41147 0,0.20247 -0.13721,0.144 -0.67703,-0.28849 z m 14.47714,-2.763526 c 0,-0.363802 0.0601,-0.51263 0.13345,-0.330729 0.0734,0.181901 0.0734,0.479557 0,0.661458 -0.0734,0.181901 -0.13345,0.03307 -0.13345,-0.330729 z m -21.47302,-0.396875 c -0.36381,-0.207968 -0.5424,-0.378124 -0.39688,-0.378124 0.14552,0 0.56224,0.170156 0.92604,0.378124 0.36381,0.207968 0.5424,0.378124 0.39688,0.378124 -0.14552,0 -0.56224,-0.170156 -0.92604,-0.378124 z m -2.91042,-1.190625 c -0.21828,-0.141065 -0.27781,-0.256479 -0.13229,-0.256479 0.14552,0 0.44318,0.115414 0.66146,0.256479 0.21828,0.141065 0.27781,0.256479 0.13229,0.256479 -0.14552,0 -0.44318,-0.115414 -0.66146,-0.256479 z m -4.63021,-1.5875 c -0.34891,-0.149934 -0.39398,-0.232344 -0.13229,-0.241935 0.21828,-0.008 0.57547,0.10087 0.79375,0.241935 0.48365,0.312558 0.0659,0.312558 -0.66146,0 z m -4.63021,-1.455208 c -0.50932,-0.196138 -0.74744,-0.356616 -0.52916,-0.356616 0.21828,0 0.81359,0.160478 1.32291,0.356616 0.50933,0.196138 0.74745,0.356616 0.52917,0.356616 -0.21828,0 -0.81359,-0.160478 -1.32292,-0.356616 z m -10.89752,-2.429698 c 0.19099,-0.07643 0.4192,-0.06703 0.50712,0.02088 0.0879,0.08792 -0.0684,0.150452 -0.34727,0.138964 -0.30823,-0.0127 -0.37092,-0.07539 -0.15985,-0.159851 z m -1.60404,-0.259072 c 0.1819,-0.0734 0.47956,-0.0734 0.66146,0 0.1819,0.0734 0.0331,0.133453 -0.33073,0.133453 -0.3638,0 -0.51263,-0.06006 -0.33073,-0.133453 z m -1.45017,-0.272709 c 0.25743,-0.06708 0.61462,-0.06267 0.79375,0.0098 0.17913,0.07248 -0.0315,0.127363 -0.46806,0.121971 -0.43656,-0.0054 -0.58312,-0.06469 -0.32569,-0.131774 z m -1.72483,-0.256458 c 0.1819,-0.0734 0.47956,-0.0734 0.66146,0 0.1819,0.0734 0.0331,0.133453 -0.33073,0.133453 -0.3638,0 -0.51263,-0.06005 -0.33073,-0.133453 z m -3.56684,-0.272708 c 0.25743,-0.06708 0.61462,-0.06267 0.79375,0.0098 0.17913,0.07248 -0.0315,0.127362 -0.46805,0.12197 -0.43657,-0.0054 -0.58313,-0.06469 -0.3257,-0.131773 z m -3.7092,-0.270738 c 0.40018,-0.06062 1.05503,-0.06062 1.45521,0 0.40018,0.06062 0.0728,0.110223 -0.72761,0.110223 -0.80036,0 -1.12778,-0.0496 -0.7276,-0.110223 z m -5.02708,-0.267816 c 0.5457,-0.05708 1.43867,-0.05708 1.98437,0 0.5457,0.05708 0.0992,0.103785 -0.99219,0.103785 -1.0914,0 -1.53789,-0.0467 -0.99218,-0.103785 z m 87.00266,-14.513682 c 0.0127,-0.308227 0.0754,-0.37092 0.15985,-0.159854 0.0764,0.190995 0.067,0.419198 -0.0209,0.507119 -0.0879,0.08792 -0.15045,-0.06835 -0.13896,-0.347265 z m -25.37912,-2.226911 c 0,-0.363802 0.0601,-0.51263 0.13345,-0.330729 0.0734,0.181901 0.0734,0.479557 0,0.661458 -0.0734,0.181901 -0.13345,0.03307 -0.13345,-0.330729 z m 0.26459,-1.322916 c 0,-0.363803 0.06,-0.512631 0.13345,-0.33073 0.0734,0.181901 0.0734,0.479558 0,0.661459 -0.0734,0.181901 -0.13345,0.03307 -0.13345,-0.330729 z m 0.24369,-1.212673 c 0.0127,-0.308227 0.0754,-0.37092 0.15985,-0.159854 0.0764,0.190995 0.067,0.419198 -0.0209,0.507119 -0.0879,0.08792 -0.15046,-0.06835 -0.13897,-0.347265 z m 23.54792,-2.38125 c 0.0127,-0.308227 0.0754,-0.37092 0.15985,-0.159854 0.0764,0.190995 0.067,0.419198 -0.0209,0.507119 -0.0879,0.08792 -0.15045,-0.06835 -0.13896,-0.347265 z m -20.65029,-7.386286 c 0,-0.145521 0.11542,-0.443177 0.25648,-0.661458 0.14107,-0.218281 0.25648,-0.277813 0.25648,-0.132292 0,0.145521 -0.11541,0.443177 -0.25648,0.661459 -0.14106,0.218281 -0.25648,0.277812 -0.25648,0.132291 z m 17.22799,-2.711979 c -0.28872,-0.674698 -0.28219,-0.690261 0.0898,-0.214013 0.22065,0.282474 0.40117,0.609896 0.40117,0.727604 0,0.402143 -0.17947,0.214407 -0.49099,-0.513591 z m -16.17776,-0.05053 c 0,-0.136933 0.1177,-0.321712 0.26156,-0.410618 0.14998,-0.09269 0.19433,0.01352 0.10398,0.248968 -0.17589,0.45837 -0.36554,0.542235 -0.36554,0.16165 z m 15.23056,-2.054725 c -0.14359,-0.377084 -0.1132,-0.407474 0.14811,-0.148114 0.18082,0.179478 0.26211,0.39297 0.18065,0.474432 -0.0815,0.08146 -0.22941,-0.06538 -0.32876,-0.326318 z M 179.00953,51.55788 c 0,-0.136933 0.1177,-0.321712 0.26155,-0.410618 0.14998,-0.09269 0.19434,0.01352 0.10398,0.248968 -0.17589,0.45837 -0.36553,0.542235 -0.36553,0.16165 z m 0.79375,-1.338532 c 0.15576,-0.291042 0.34273,-0.529167 0.41549,-0.529167 0.0728,0 0.005,0.238125 -0.15091,0.529167 -0.15576,0.291041 -0.34273,0.529166 -0.41549,0.529166 -0.0728,0 -0.005,-0.238125 0.15091,-0.529166 z m 3.43958,-5.656147 c 0,-0.05494 0.20836,-0.2633 0.46302,-0.46302 0.41965,-0.329108 0.429,-0.319749 0.0999,0.0999 -0.34565,0.440729 -0.56292,0.580887 -0.56292,0.363124 z m 2.08292,-0.363124 c -0.32911,-0.419645 -0.31975,-0.429004 0.0999,-0.0999 0.44073,0.345643 0.58089,0.562917 0.36313,0.562917 -0.0549,0 -0.2633,-0.20836 -0.46302,-0.463021 z m -0.63859,-0.877499 c -0.0959,-0.155202 -0.11766,-0.338931 -0.0483,-0.408286 0.0693,-0.06936 0.1966,0.05763 0.28277,0.282186 0.17891,0.466225 0.0264,0.548232 -0.23447,0.1261 z"
         id="path3768"
         inkscape:connector-curvature="0" />
      <path
         style="fill:#e7521e;stroke-width:0.26458332"
         d="m 116.43557,209.56042 -6.87917,-0.0704 0.069,-22.86905 0.069,-22.86906 0.75605,-0.82777 0.75605,-0.82776 1.90929,0.9615 c 4.41448,2.2231 9.75305,6.35004 13.82871,10.69019 2.07443,2.20904 5.1141,6.10793 5.92366,7.59808 l 0.44522,0.81952 -1.63484,2.2005 c -4.5402,6.11115 -7.79072,14.87971 -8.18865,22.08963 l -0.17523,3.175 z m 11.36326,-2.15785 c 0.26575,-3.26993 1.33394,-8.85841 2.12803,-11.13322 0.88933,-2.54769 3.27728,-7.51728 4.44615,-9.25295 l 0.90783,-1.34805 0.41428,0.63227 c 0.56934,0.86892 3.3621,8.17182 3.53235,9.23687 0.0787,0.49239 -0.16787,2.17312 -0.57316,3.90686 -0.49736,2.12758 -0.7538,4.09384 -0.85265,6.53763 l -0.14135,3.49492 -5.02129,0.077 -5.02128,0.077 z m -21.48834,1.30219 c 0,-0.50932 0.0545,-0.71768 0.12101,-0.46302 0.0665,0.25466 0.0665,0.67138 0,0.92605 -0.0666,0.25466 -0.12101,0.0463 -0.12101,-0.46303 z m 110.4891,-1.64246 c -0.20822,-0.64412 0.43088,-5.65117 0.67334,-5.27523 0.35396,0.54878 0.5156,3.49824 0.24765,4.51845 -0.24897,0.948 -0.73109,1.34415 -0.92099,0.75678 z m -2.20361,-1.94922 c -1.16641,-0.79977 -2.99137,-1.4354 -4.12117,-1.4354 -0.65691,0 -0.75631,-0.12548 -0.99558,-1.25677 -0.69172,-3.27074 -0.70297,-3.12195 0.26639,-3.53077 1.90463,-0.80329 5.72868,-0.0384 6.22091,1.24437 0.0848,0.22092 0.0492,1.59475 -0.079,3.05295 l -0.23318,2.65127 z m -8.48143,-1.8466 c 0.22366,-1.19218 0.736,-2.26444 1.30935,-2.74027 0.43656,-0.36233 0.40105,-0.43978 0.9189,2.0038 l 0.23338,1.10129 -0.91148,0.17099 c -0.50134,0.0941 -1.0985,0.24276 -1.32705,0.33046 -0.35219,0.13514 -0.38618,0.003 -0.2231,-0.86627 z m 8.74602,-5.07852 c -1.70762,-0.86652 -3.41461,-1.04364 -4.73623,-0.49144 -0.5593,0.2337 -1.16165,0.42491 -1.33853,0.42491 -0.17687,0 -0.54361,-0.68461 -0.81499,-1.52135 -1.11898,-3.45017 -2.38776,-6.27772 -3.94759,-8.7974 -6.31039,-10.19358 -15.50712,-17.12126 -26.53165,-19.98567 -3.39107,-0.88108 -7.8907,-1.27662 -12.69758,-1.11618 -4.54584,0.15172 -4.44192,0.3006 -1.2626,-1.8089 1.49656,-0.99297 5.52392,-3.05506 8.46667,-4.3351 1.792,-0.77949 6.74702,-2.17616 10.45104,-2.94584 2.70638,-0.56238 3.73,-0.63227 9.26042,-0.63227 6.80311,0 8.65497,0.25008 14.94895,2.01875 3.5478,0.99696 3.62861,1.03549 3.85125,1.83661 0.17066,0.61396 0.94147,3.26112 2.11318,7.25714 0.99245,3.38473 1.85975,7.87978 2.52701,13.09688 0.66426,5.19388 1.21975,13.38554 1.09878,16.20349 -0.0359,0.83551 -0.0652,1.50754 -0.0652,1.4934 0,-0.0142 -0.59531,-0.32781 -1.32291,-0.69703 z m -75.64527,-6.12111 c -0.3849,-1.21842 -1.23272,-3.28776 -1.88404,-4.59855 -0.65133,-1.31079 -1.18423,-2.56262 -1.18423,-2.78185 0,-0.50659 1.93523,-2.81308 4.44253,-5.29478 3.52257,-3.4866 8.6672,-6.93561 12.97081,-8.69575 l 1.40606,-0.57506 -2.33814,2.42476 c -5.43398,5.63532 -9.45353,12.21368 -11.98913,19.62127 l -0.72405,2.11526 z m -6.37556,-12.53469 c -2.52949,-3.94674 -7.95842,-9.70399 -11.94459,-12.66696 -0.85204,-0.63333 -1.90635,-1.41914 -2.34291,-1.74624 -0.43657,-0.3271 -1.09188,-0.74466 -1.45626,-0.9279 -0.36437,-0.18324 -1.62653,-0.91086 -2.8048,-1.61692 l -2.1423,-1.28376 2.57699,-2.61511 2.57699,-2.61511 2.07989,0.24173 c 8.19384,0.95233 19.78825,0.14045 26.32852,-1.84359 3.67308,-1.11426 8.03191,-2.59335 9.35346,-3.17393 4.97907,-2.18736 9.27168,-4.49971 12.43127,-6.69647 l 0.7896,-0.54898 -0.95634,1.31053 c -1.14677,1.57148 -4.81867,8.15968 -5.50532,9.87774 -0.2687,0.6723 -0.87087,2.17487 -1.33815,3.33903 -1.11882,2.78734 -2.33381,6.50747 -2.53381,7.75819 -0.15858,0.99173 -0.17818,1.00587 -2.05284,1.48163 -7.28221,1.84812 -14.59403,6.12221 -20.14071,11.77315 -0.86857,0.8849 -1.64247,1.60787 -1.71979,1.60659 -0.0773,-0.001 -0.61682,-0.7454 -1.1989,-1.65362 z m 26.06145,-12.87656 c 0,-0.37355 1.83276,-6.03532 2.56676,-7.92927 1.87266,-4.83201 5.34427,-11.1085 8.64973,-15.63823 3.61519,-4.95419 6.77452,-8.32834 11.82659,-12.63077 l 2.53787,-2.16129 1.03401,1.40723 c 3.54467,4.82415 12.75343,13.12782 17.45645,15.74073 0.95385,0.52995 1.27815,1.00164 2.84427,4.1371 0.97221,1.94643 1.76766,3.65315 1.76766,3.79271 0,0.13956 0.2531,0.82917 0.56245,1.53246 0.71186,1.61846 1.53252,3.79224 1.43166,3.79224 -0.0423,0 -1.19293,-0.3421 -2.55688,-0.76023 -4.65368,-1.42662 -9.19567,-2.0155 -15.44453,-2.00244 -7.86383,0.0164 -12.28928,0.82981 -19.87167,3.6523 -3.15526,1.17452 -8.93813,4.35779 -11.58008,6.37445 -0.67336,0.51398 -1.22429,0.82583 -1.22429,0.69301 z m 28.04105,-15.12401 c 1.42997,-0.61515 3.16425,-2.47032 3.66354,-3.91891 0.76544,-2.22075 0.10946,-4.89116 -1.6174,-6.5842 -3.24576,-3.1822 -8.16397,-2.24747 -10.14096,1.92733 -1.52451,3.2193 -0.12809,6.92191 3.20481,8.49754 1.64183,0.77617 3.20933,0.80126 4.89001,0.0782 z m -64.42125,3.97728 c -1.89178,-0.10428 -3.64312,-0.20318 -3.89188,-0.21978 -0.27519,-0.0184 9.19392,-9.67811 24.18304,-24.66994 l 24.63534,-24.63978 0.82008,0.47843 c 0.45104,0.26313 1.2368,0.7983 1.74612,1.18927 0.50933,0.39096 1.81901,1.36352 2.91042,2.16123 1.82251,1.33209 2.0357,1.58852 2.61359,3.14374 0.94082,2.53198 3.75674,7.8061 5.98348,11.2069 1.08474,1.65665 2.00516,3.12629 2.0454,3.26585 0.0402,0.13956 -1.23653,1.37921 -2.83726,2.75477 -3.29108,2.82813 -7.23424,6.87715 -9.39271,9.64489 -1.88788,2.42077 -4.83089,4.51623 -10.8101,7.69695 -8.80944,4.68629 -18.8427,7.46705 -28.8774,8.0035 -2.54661,0.13614 -4.86833,0.2309 -5.15937,0.21056 -0.29105,-0.0203 -2.07698,-0.12229 -3.96875,-0.22659 z m 78.8135,-12.36675 c -4.35396,-2.91576 -10.31703,-8.35736 -14.18404,-12.94364 -1.00818,-1.1957 -1.76307,-2.28723 -1.67754,-2.42562 0.24261,-0.39255 4.11979,-2.9785 4.12121,-2.74871 8e-4,0.11251 0.43256,0.67421 0.95969,1.24821 1.0539,1.14761 3.9786,4.71344 4.59936,5.6076 0.21605,0.31121 1.20547,1.73563 2.19873,3.16538 0.99324,1.42975 2.5242,3.7945 3.40214,5.255 0.87794,1.46051 1.82502,2.98289 2.10463,3.38307 0.27959,0.40018 0.47503,0.72605 0.43429,0.72414 -0.0407,-0.002 -0.92205,-0.57134 -1.95847,-1.26543 z m 19.74379,-1.78969 c -6.14199,-0.51715 -13.63771,-2.23223 -18.91771,-4.32851 -2.68076,-1.06432 -2.98349,-1.2574 -3.83646,-2.44691 -1.8962,-2.64435 -3.61198,-4.91488 -4.97072,-6.57788 -0.76936,-0.94164 -1.7461,-2.14396 -2.17052,-2.67183 l -0.77169,-0.95976 1.56006,-0.92595 c 6.85329,-4.06771 14.63031,-6.81775 24.34454,-8.60851 3.59055,-0.66189 4.31128,-0.70624 11.24479,-0.69197 7.13488,0.0147 7.56459,0.0452 11.64166,0.82571 6.86025,1.31337 10.14574,2.20971 13.89063,3.78958 0.65484,0.27626 2.26219,0.95387 3.57187,1.5058 1.30969,0.55193 3.51235,1.64445 4.8948,2.4278 2.76825,1.56863 7.56777,4.66807 7.79309,5.03265 0.19433,0.31446 -5.1666,3.84856 -8.58684,5.66071 -8.80878,4.66715 -18.49364,7.39411 -28.77884,8.10325 -4.76483,0.32852 -5.52434,0.31918 -10.90866,-0.13418 z m -36.91073,-15.03464 c -2.20541,-3.06766 -4.86673,-7.57115 -6.19417,-10.48178 -0.63048,-1.38244 -1.26756,-2.66524 -1.41572,-2.85066 -1.45665,-1.82299 4.25114,3.02775 8.09018,6.87538 1.41007,1.41323 2.56377,2.70691 2.56377,2.87484 0,0.37674 -2.35314,3.94836 -2.60136,3.94836 -0.0987,0 -0.29793,-0.16476 -0.4427,-0.36614 z m 3.18731,-1.71963 c 0.57864,-0.87439 0.79702,-1.03242 1.0903,-0.78902 0.20171,0.1674 0.3341,0.32198 0.2942,0.34351 -0.0399,0.0215 -0.53053,0.37659 -1.0903,0.78902 l -1.01776,0.74987 z m -2.68462,-6.0831 c -1.76155,-1.71838 -4.55951,-4.26193 -6.2177,-5.65232 l -3.01489,-2.528 -1.12042,-3.66551 c -0.61623,-2.01603 -1.24482,-4.16754 -1.39688,-4.78114 l -0.27645,-1.11564 12.57552,-12.562357 c 10.76052,-10.749256 12.57609,-12.459396 12.57945,-11.848949 0.002,0.392377 0.1229,2.439818 0.26832,4.54987 0.40627,5.895091 -0.0986,12.57445 -1.48,19.579166 -0.74861,3.79607 -3.25048,10.81133 -5.52,15.47813 -1.20306,2.47385 -2.41391,4.76187 -2.69076,5.08449 l -0.50336,0.58658 z M 124.72033,89.990691 c 0.191,-0.07643 0.4192,-0.06703 0.50712,0.02088 0.0879,0.08792 -0.0684,0.150453 -0.34726,0.138964 -0.30823,-0.0127 -0.37092,-0.07539 -0.15986,-0.15985 z m -8.20208,-0.79375 c 0.191,-0.07643 0.4192,-0.06703 0.50712,0.02088 0.0879,0.08792 -0.0683,0.150453 -0.34727,0.138964 -0.30822,-0.0127 -0.37092,-0.07539 -0.15985,-0.15985 z M 110.4104,88.92214 c 0.46969,-0.05845 1.30313,-0.05941 1.85208,-0.0021 0.54895,0.05728 0.16465,0.105098 -0.85399,0.106273 -1.01865,0.0011 -1.46779,-0.04569 -0.99809,-0.104138 z m 61.74085,-18.219632 c 0.0127,-0.308226 0.0754,-0.370919 0.15985,-0.159853 0.0764,0.190995 0.067,0.419198 -0.0209,0.507119 -0.0879,0.08792 -0.15045,-0.06835 -0.13896,-0.347266 z"
         id="path3766"
         inkscape:connector-curvature="0" />
    </g>
  </g>
</svg>
